<?xml version="1.0"?>
<svg xmlns="http://www.w3.org/2000/svg" xmlns:xlink="http://www.w3.org/1999/xlink" xmlns:svgjs="http://svgjs.com/svgjs" version="1.1" width="512" height="512" x="0" y="0" viewBox="0 0 496 496" style="enable-background:new 0 0 512 512" xml:space="preserve"><g>
<g xmlns="http://www.w3.org/2000/svg">
	<g>
		<path d="M391.64,324.528L368.808,134.28C377.688,130.752,384,122.12,384,112c0-11.976-8.848-21.848-20.328-23.632    C349.576,36.84,301.944,0,248,0c-53.944,0-101.576,36.84-115.672,88.368C120.848,90.152,112,100.024,112,112    c0,10.12,6.312,18.752,15.192,22.272L104.36,324.528C89.408,334.776,80,351.792,80,370.592V496h336V370.592    C416,351.792,406.592,334.776,391.64,324.528z M352,104h8c4.408,0,8,3.592,8,8s-3.592,8-8,8h-8V104z M248,16    c45.144,0,85.24,29.752,98.936,72H149.064C162.76,45.752,202.856,16,248,16z M336,104v16h-16v-16H336z M248,272    c-38.792,0-70.432-30.864-71.864-69.32c-0.048-1.92-0.136-3.832-0.136-5.76V176v-40h144v40v20.92c0,1.928-0.088,3.848-0.136,5.768    C318.432,241.136,286.792,272,248,272z M280,281.888v12.56c-1.736,3.808-9.536,17.552-32,17.552c-22.28,0-30.176-13.616-32-17.568    v-12.544c9.936,3.896,20.704,6.112,32,6.112S270.064,285.784,280,281.888z M160,120v-16h16v16H160z M192,120v-16h16v16H192z     M224,120v-16h16v16H224z M256,120v-16h16v16H256z M288,120v-16h16v16H288z M136,104h8v16h-8c-4.408,0-8-3.592-8-8    S131.592,104,136,104z M134.824,480H96V370.592c0-17.24,10.992-32.496,27.352-37.944l5.4-1.8l-7.016,42.12    c-1.328,7.952-0.24,16.016,3.136,23.328l9.952,21.568V480z M150.816,480v-27.464L163.496,480H150.816z M192,473.368    c0,3.656-2.976,6.632-6.64,6.632c-2.576,0-4.944-1.512-6.024-3.848L139.384,389.6c-2.024-4.392-2.672-9.224-1.88-14l14.376-86.28    l-15.784-2.624l-4.384,26.312l-10.28,3.432L143.096,136H160v40v20.92V200c0,0.904,0.112,1.784,0.136,2.688    c0.68,27.6,6.152,54.584,16.44,80.28C186.808,308.56,192,335.512,192,363.08V473.368z M200,290.232l-3.432,1.144    c-1.568-4.816-3.248-9.616-5.144-14.352c-1.896-4.736-3.56-9.536-5.104-14.36c4.168,4.104,8.76,7.776,13.68,10.992V290.232z     M204.024,305.76c4.896,7.776,15.512,19.28,35.976,21.728V430.92l-32-26.664V363.08c0-19.12-2.36-37.968-6.968-56.32    L204.024,305.76z M206.896,480c0.648-2.112,1.104-4.312,1.104-6.632v-8.288L225.904,480H206.896z M208,444.248V425.08l40,33.336    l40-33.336v19.168l-40,33.336L208,444.248z M270.096,480L288,465.08v8.288c0,2.32,0.456,4.52,1.104,6.632H270.096z M288,363.08    v41.176l-32,26.664V327.488c20.464-2.448,31.088-13.952,35.976-21.728l2.992,1C290.36,325.112,288,343.952,288,363.08z     M296,290.232v-16.576c4.92-3.216,9.504-6.888,13.68-10.992c-1.552,4.832-3.208,9.632-5.104,14.368s-3.568,9.528-5.144,14.352    L296,290.232z M344,480h-11.496L344,455.096V480z M358.48,375.592c0.792,4.776,0.144,9.608-1.88,14L344.416,416H344v0.904    l-27.336,59.232c-1.08,2.352-3.448,3.864-6.024,3.864c-3.664,0-6.64-2.976-6.64-6.632V363.08c0-27.56,5.192-54.512,15.432-80.112    c10.28-25.696,15.752-52.68,16.432-80.28c0.024-0.904,0.136-1.784,0.136-2.688v-3.08V176v-40h16.904l21.648,180.424l-10.28-3.432    l-4.384-26.304l-15.784,2.624L358.48,375.592z M400,480h-40v-59.576l11.136-24.128c3.376-7.312,4.464-15.376,3.136-23.328    l-7.016-42.12l5.4,1.8C389.008,338.104,400,353.352,400,370.592V480z" fill="#ffffff" data-original="#000000" style=""/>
	</g>
</g>
<g xmlns="http://www.w3.org/2000/svg">
	<g>
		<circle cx="288" cy="176" r="8" fill="#ffffff" data-original="#000000" style=""/>
	</g>
</g>
<g xmlns="http://www.w3.org/2000/svg">
	<g>
		<circle cx="208" cy="176" r="8" fill="#ffffff" data-original="#000000" style=""/>
	</g>
</g>
<g xmlns="http://www.w3.org/2000/svg">
	<g>
		<path d="M264,216c0,8.824-7.176,16-16,16c-8.824,0-16-7.176-16-16h-16c0,17.648,14.352,32,32,32s32-14.352,32-32H264z" fill="#ffffff" data-original="#000000" style=""/>
	</g>
</g>
<g xmlns="http://www.w3.org/2000/svg">
</g>
<g xmlns="http://www.w3.org/2000/svg">
</g>
<g xmlns="http://www.w3.org/2000/svg">
</g>
<g xmlns="http://www.w3.org/2000/svg">
</g>
<g xmlns="http://www.w3.org/2000/svg">
</g>
<g xmlns="http://www.w3.org/2000/svg">
</g>
<g xmlns="http://www.w3.org/2000/svg">
</g>
<g xmlns="http://www.w3.org/2000/svg">
</g>
<g xmlns="http://www.w3.org/2000/svg">
</g>
<g xmlns="http://www.w3.org/2000/svg">
</g>
<g xmlns="http://www.w3.org/2000/svg">
</g>
<g xmlns="http://www.w3.org/2000/svg">
</g>
<g xmlns="http://www.w3.org/2000/svg">
</g>
<g xmlns="http://www.w3.org/2000/svg">
</g>
<g xmlns="http://www.w3.org/2000/svg">
</g>
</g></svg>
