<svg xmlns="http://www.w3.org/2000/svg" viewBox="0 0 500 500"><g id="freepik--background-complete--inject-133"><rect x="416.78" y="398.49" width="33.12" height="0.25" style="fill:#ebebeb"></rect><rect x="322.53" y="401.21" width="8.69" height="0.25" style="fill:#ebebeb"></rect><rect x="396.59" y="389.21" width="19.19" height="0.25" style="fill:#ebebeb"></rect><rect x="52.46" y="390.89" width="43.19" height="0.25" style="fill:#ebebeb"></rect><rect x="104.56" y="390.89" width="6.33" height="0.25" style="fill:#ebebeb"></rect><rect x="131.47" y="395.11" width="93.68" height="0.25" style="fill:#ebebeb"></rect><path d="M237,337.8H43.92a5.71,5.71,0,0,1-5.71-5.71V60.66A5.71,5.71,0,0,1,43.92,55H237a5.71,5.71,0,0,1,5.71,5.71V332.09A5.71,5.71,0,0,1,237,337.8ZM43.92,55.2a5.47,5.47,0,0,0-5.46,5.46V332.09a5.47,5.47,0,0,0,5.46,5.46H237a5.47,5.47,0,0,0,5.46-5.46V60.66A5.47,5.47,0,0,0,237,55.2Z" style="fill:#ebebeb"></path><path d="M453.31,337.8H260.21a5.72,5.72,0,0,1-5.71-5.71V60.66A5.72,5.72,0,0,1,260.21,55h193.1A5.71,5.71,0,0,1,459,60.66V332.09A5.71,5.71,0,0,1,453.31,337.8ZM260.21,55.2a5.47,5.47,0,0,0-5.46,5.46V332.09a5.47,5.47,0,0,0,5.46,5.46h193.1a5.47,5.47,0,0,0,5.46-5.46V60.66a5.47,5.47,0,0,0-5.46-5.46Z" style="fill:#ebebeb"></path><rect y="382.4" width="500" height="0.25" style="fill:#ebebeb"></rect><circle cx="386.77" cy="335.44" r="19.5" transform="translate(-28.56 634.79) rotate(-76.72)" style="fill:#f0f0f0"></circle><path d="M374.31,299l-.24-.58a1,1,0,0,0-1.32-.55L370.11,299a1,1,0,0,0-.54,1.32l.24.58a1,1,0,0,0,1.32.55h0s1.47,3.44,1.9,4.61c1,2.54,3.07,9.1,4,11.94a1.3,1.3,0,0,0,1.74.8l1.89-.78a1.31,1.31,0,0,0,.67-1.8c-1.37-2.65-4.51-8.79-5.63-11.26-.52-1.13-1.91-4.6-1.91-4.6h0A1,1,0,0,0,374.31,299Z" style="fill:#f0f0f0"></path><path d="M398.62,368l.19.47a.82.82,0,0,0,1.07.44L402,368a.83.83,0,0,0,.44-1.07l-.2-.47a.81.81,0,0,0-1.06-.44h0s-1.19-2.78-1.55-3.73c-.76-2.05-2.47-7.35-3.21-9.65A1.07,1.07,0,0,0,395,352l-1.53.64a1,1,0,0,0-.53,1.45c1.1,2.15,3.64,7.11,4.55,9.1.42.92,1.54,3.72,1.54,3.72h0A.82.82,0,0,0,398.62,368Z" style="fill:#f0f0f0"></path><path d="M415.85,348.37l.39.16a.67.67,0,0,0,.88-.36l.73-1.77a.68.68,0,0,0-.36-.88l-.39-.16a.69.69,0,0,0-.89.36h0s-2.32-.93-3.08-1.27c-1.64-.76-5.75-2.85-7.52-3.77a.88.88,0,0,0-1.21.44l-.52,1.27a.86.86,0,0,0,.54,1.16c1.9.61,6.28,2,8,2.66.78.3,3.08,1.28,3.08,1.28h0A.67.67,0,0,0,415.85,348.37Z" style="fill:#f0f0f0"></path><path d="M352.2,318.48l-.59-.25a1,1,0,0,0-1.31.55l-1.1,2.64a1,1,0,0,0,.55,1.32l.58.24a1,1,0,0,0,1.32-.54h0s3.47,1.39,4.61,1.91c2.46,1.12,8.6,4.26,11.25,5.62a1.3,1.3,0,0,0,1.8-.66l.79-1.89a1.31,1.31,0,0,0-.81-1.74c-2.84-.91-9.4-3-11.94-4-1.17-.43-4.61-1.91-4.61-1.91h0A1,1,0,0,0,352.2,318.48Z" style="fill:#f0f0f0"></path><path d="M354.19,346.29l-.46.19a.8.8,0,0,0-.43,1l.87,2.09a.79.79,0,0,0,1,.43l.46-.19a.79.79,0,0,0,.43-1h0s2.72-1.17,3.64-1.51c2-.75,7.19-2.42,9.44-3.15a1,1,0,0,0,.64-1.37l-.62-1.5a1,1,0,0,0-1.42-.52c-2.1,1.08-7,3.56-8.9,4.45-.9.41-3.64,1.51-3.64,1.51h0A.8.8,0,0,0,354.19,346.29Z" style="fill:#f0f0f0"></path><path d="M423.21,323l.58-.24a1,1,0,0,0,.54-1.32l-1.09-2.64a1,1,0,0,0-1.32-.55l-.58.25a1,1,0,0,0-.55,1.31h0s-3.44,1.48-4.61,1.91c-2.53.95-9.09,3.07-11.94,4a1.31,1.31,0,0,0-.8,1.74l.78,1.89a1.3,1.3,0,0,0,1.8.66c2.66-1.36,8.8-4.5,11.26-5.62,1.13-.52,4.61-1.91,4.61-1.91h0A1,1,0,0,0,423.21,323Z" style="fill:#f0f0f0"></path><path d="M371.41,366.14l-.19.46a.79.79,0,0,0,.43,1l2.09.87a.8.8,0,0,0,1-.43l.19-.46a.79.79,0,0,0-.43-1h0s1.1-2.75,1.51-3.65c.89-1.94,3.37-6.8,4.45-8.89a1,1,0,0,0-.53-1.43l-1.49-.62a1,1,0,0,0-1.38.64c-.72,2.25-2.39,7.43-3.14,9.44-.35.92-1.51,3.64-1.51,3.64h0A.79.79,0,0,0,371.41,366.14Z" style="fill:#f0f0f0"></path><path d="M403.73,300.86l.24-.58a1,1,0,0,0-.55-1.32l-2.64-1.09a1,1,0,0,0-1.32.55l-.24.58a1,1,0,0,0,.55,1.32h0s-1.39,3.47-1.91,4.6c-1.13,2.47-4.27,8.61-5.63,11.26a1.3,1.3,0,0,0,.66,1.8l1.89.78a1.29,1.29,0,0,0,1.74-.8c.91-2.84,3-9.4,4-11.94.44-1.17,1.91-4.61,1.91-4.61h0A1,1,0,0,0,403.73,300.86Z" style="fill:#f0f0f0"></path><path d="M407.4,313.54l.34-.36a.8.8,0,0,0,0-1.13l-1.65-1.54a.8.8,0,0,0-1.13,0l-.34.37a.79.79,0,0,0,0,1.12h0s-2,2.19-2.69,2.88c-1.52,1.51-5.55,5.17-7.29,6.76a1,1,0,0,0,0,1.51l1.18,1.1a1,1,0,0,0,1.51-.11c1.46-1.84,4.85-6.1,6.26-7.72.64-.74,2.69-2.87,2.69-2.87h0A.79.79,0,0,0,407.4,313.54Z" style="fill:#e0e0e0"></path><path d="M365.73,353.52l-.28.3a.65.65,0,0,0,0,.91l1.34,1.24a.64.64,0,0,0,.91,0l.27-.29a.65.65,0,0,0,0-.91h0s1.61-1.76,2.18-2.33c1.22-1.21,4.47-4.18,5.89-5.46a.82.82,0,0,0,0-1.22l-1-.89a.83.83,0,0,0-1.22.09c-1.18,1.49-3.92,4.93-5.06,6.24-.52.6-2.17,2.32-2.17,2.32h0A.65.65,0,0,0,365.73,353.52Z" style="fill:#e0e0e0"></path><path d="M385.45,359.51v.34a.53.53,0,0,0,.55.51l1.51-.05a.53.53,0,0,0,.51-.55v-.33a.53.53,0,0,0-.55-.52h0s-.09-2-.09-2.63c0-1.43.18-5.06.25-6.64a.69.69,0,0,0-.71-.72l-1.08,0a.7.7,0,0,0-.66.77c.18,1.57.6,5.19.69,6.61.05.66.09,2.63.09,2.63h0A.53.53,0,0,0,385.45,359.51Z" style="fill:#e0e0e0"></path><path d="M386.18,304l0-.5a.79.79,0,0,0-.82-.77l-2.26.08a.79.79,0,0,0-.77.82l0,.5a.79.79,0,0,0,.82.77h0s.14,2.95.13,3.93c0,2.14-.26,7.58-.37,9.93a1,1,0,0,0,1.06,1.08l1.62-.05a1,1,0,0,0,1-1.15c-.27-2.34-.88-7.75-1-9.88-.07-1-.13-3.94-.13-3.94h0A.79.79,0,0,0,386.18,304Z" style="fill:#e0e0e0"></path><path d="M366.83,314.5l-.28-.27a.64.64,0,0,0-.9,0l-1.22,1.3a.64.64,0,0,0,0,.89l.29.27a.62.62,0,0,0,.89,0h0s1.73,1.58,2.28,2.13c1.19,1.2,4.08,4.38,5.34,5.76a.81.81,0,0,0,1.19,0l.88-.93a.83.83,0,0,0-.09-1.2c-1.46-1.15-4.83-3.84-6.11-4.94-.58-.52-2.27-2.13-2.27-2.13h0A.62.62,0,0,0,366.83,314.5Z" style="fill:#e0e0e0"></path><path d="M406.1,356.52l.37.34a.79.79,0,0,0,1.12,0l1.55-1.65a.8.8,0,0,0,0-1.13l-.36-.34a.8.8,0,0,0-1.13,0h0s-2.18-2-2.88-2.69c-1.5-1.52-5.17-5.55-6.75-7.29a1,1,0,0,0-1.52,0l-1.1,1.18a1,1,0,0,0,.11,1.51c1.85,1.46,6.11,4.85,7.72,6.26.74.64,2.88,2.69,2.88,2.69h0A.79.79,0,0,0,406.1,356.52Z" style="fill:#e0e0e0"></path><path d="M358.17,333.35l-.39,0a.63.63,0,0,0-.61.65l.06,1.78a.63.63,0,0,0,.65.61h.39a.63.63,0,0,0,.61-.65h0s2.33-.11,3.11-.11c1.69,0,6,.21,7.85.3a.81.81,0,0,0,.85-.84l0-1.28a.81.81,0,0,0-.9-.78c-1.86.22-6.13.7-7.82.82-.77.05-3.11.1-3.11.1h0A.63.63,0,0,0,358.17,333.35Z" style="fill:#e0e0e0"></path><path d="M415.66,335.3l.49,0a.79.79,0,0,0,.77-.82l-.07-2.26a.81.81,0,0,0-.83-.77l-.49,0a.79.79,0,0,0-.77.82h0s-2.95.14-3.94.13c-2.14,0-7.57-.26-9.93-.37a1,1,0,0,0-1.08,1.06l.06,1.62a1,1,0,0,0,1.14,1c2.34-.27,7.75-.88,9.89-1,1-.07,3.93-.13,3.93-.13h0A.81.81,0,0,0,415.66,335.3Z" style="fill:#e0e0e0"></path><path d="M371.05,301.43l.08,0s.24.56.55,1.31l2.62-1.08c-.3-.76-.53-1.32-.53-1.32l.06,0Z" style="fill:#e0e0e0"></path><path d="M373.35,297.83v0a1,1,0,0,0-.59.06L370.11,299a1,1,0,0,0-.45.38v0c.09.21,1,0,2-.38S373.44,298,373.35,297.83Z" style="fill:#e0e0e0"></path><path d="M378.75,318.76l1.89-.78a1.31,1.31,0,0,0,.67-1.8c-1.37-2.65-4.51-8.79-5.63-11.26-.06-.12-.12-.27-.2-.44,1.5,3.59,5.44,10.94,4.37,12.61-.48.76-1.6,1.46-3,.27.07.22.14.42.19.6A1.3,1.3,0,0,0,378.75,318.76Z" style="fill:#e0e0e0"></path><path d="M401.25,366l-.05,0s-.2-.46-.45-1.06l-2.12.88c.25.6.43,1.06.43,1.06l-.05,0Z" style="fill:#e0e0e0"></path><path d="M399.4,368.92v0a.77.77,0,0,0,.47-.05L402,368a.84.84,0,0,0,.36-.31h0c-.07-.18-.8,0-1.62.3S399.33,368.75,399.4,368.92Z" style="fill:#e0e0e0"></path><path d="M395,352l-1.53.64a1,1,0,0,0-.53,1.45c1.1,2.15,3.64,7.11,4.55,9.1,0,.1.1.22.16.35-1.21-2.89-4.4-8.84-3.54-10.19a1.52,1.52,0,0,1,2.45-.22q-.07-.25-.15-.48A1.07,1.07,0,0,0,395,352Z" style="fill:#e0e0e0"></path><path d="M416.24,345.68l0,0-.88-.35-.72,1.75.87.37s0,0,0,.05Z" style="fill:#e0e0e0"></path><path d="M416.86,348.47h0a.62.62,0,0,0,.25-.3l.73-1.77a.66.66,0,0,0,0-.39h0c-.15-.06-.49.45-.77,1.13S416.71,348.41,416.86,348.47Z" style="fill:#e0e0e0"></path><path d="M404.4,341.12l-.52,1.27a.86.86,0,0,0,.54,1.16c1.9.61,6.28,2,8,2.66l.3.12c-2.4-1-7.74-2.6-8-3.9-.13-.58.07-1.44,1.31-1.56-.14-.06-.26-.13-.37-.19A.88.88,0,0,0,404.4,341.12Z" style="fill:#e0e0e0"></path><path d="M351.61,322.5l0-.06L353,323l1.08-2.62-1.31-.56a.14.14,0,0,0,0-.07Z" style="fill:#e0e0e0"></path><path d="M350.69,318.33h0a1,1,0,0,0-.37.45l-1.1,2.64a1.1,1.1,0,0,0-.06.59h0c.21.09.73-.66,1.15-1.68S350.9,318.42,350.69,318.33Z" style="fill:#e0e0e0"></path><path d="M369.31,329.31l.79-1.89a1.31,1.31,0,0,0-.81-1.74c-2.84-.91-9.4-3-11.94-4l-.45-.17c3.59,1.48,11.58,3.89,12,5.82.19.88-.1,2.16-2,2.34l.55.28A1.3,1.3,0,0,0,369.31,329.31Z" style="fill:#e0e0e0"></path><path d="M356.12,348.86s0,0,0-.05l1-.44-.86-2.07-1,.42,0-.05Z" style="fill:#e0e0e0"></path><path d="M353.27,347.05h0a.81.81,0,0,0,0,.46l.87,2.09a.86.86,0,0,0,.29.36h0c.17-.07,0-.78-.3-1.59S353.44,347,353.27,347.05Z" style="fill:#e0e0e0"></path><path d="M369.82,342.78l-.62-1.5a1,1,0,0,0-1.42-.52c-2.1,1.08-7,3.56-8.9,4.45l-.35.15c2.84-1.18,8.65-4.29,10-3.45a1.47,1.47,0,0,1,.21,2.39l.47-.15A1,1,0,0,0,369.82,342.78Z" style="fill:#e0e0e0"></path><path d="M420.77,319.72a.64.64,0,0,0,0,.07s-.56.25-1.31.56l1.09,2.62,1.32-.53,0,.06Z" style="fill:#e0e0e0"></path><path d="M424.37,322h0a1,1,0,0,0-.06-.59l-1.09-2.64a.94.94,0,0,0-.38-.45h0c-.22.09-.05,1,.37,2S424.16,322.11,424.37,322Z" style="fill:#e0e0e0"></path><path d="M403.44,327.42l.78,1.89a1.3,1.3,0,0,0,1.8.66c2.66-1.36,8.8-4.5,11.26-5.62l.44-.2c-3.59,1.49-10.94,5.44-12.61,4.37-.76-.48-1.46-1.6-.27-3l-.6.19A1.31,1.31,0,0,0,403.44,327.42Z" style="fill:#e0e0e0"></path><path d="M374.59,366.6l0,0,.42-1.05-2.07-.86-.44,1-.06,0Z" style="fill:#e0e0e0"></path><path d="M371.29,367.33v0a.74.74,0,0,0,.36.29l2.09.87a.81.81,0,0,0,.46,0h0c.07-.17-.53-.58-1.33-.91S371.36,367.16,371.29,367.33Z" style="fill:#e0e0e0"></path><path d="M380,352.61l-1.49-.62a1,1,0,0,0-1.38.64c-.72,2.25-2.39,7.43-3.14,9.44,0,.1-.08.22-.14.35,1.17-2.84,3.08-9.15,4.61-9.49.69-.15,1.7.08,1.84,1.54l.23-.43A1,1,0,0,0,380,352.61Z" style="fill:#e0e0e0"></path><path d="M399.7,300.28l.07,0-.54,1.32,2.62,1.08.56-1.31.07,0Z" style="fill:#e0e0e0"></path><path d="M403.87,299.36a0,0,0,0,0,0,0,1,1,0,0,0-.46-.38l-2.64-1.09a1,1,0,0,0-.59-.06v0c-.09.21.67.73,1.69,1.15S403.79,299.57,403.87,299.36Z" style="fill:#e0e0e0"></path><path d="M392.89,318l1.89.78a1.29,1.29,0,0,0,1.74-.8c.91-2.84,3-9.4,4-11.94.05-.13.11-.28.17-.45-1.48,3.59-3.89,11.58-5.82,12-.88.19-2.16-.1-2.34-1.95l-.28.55A1.3,1.3,0,0,0,392.89,318Z" style="fill:#e0e0e0"></path><circle cx="134.72" cy="112.65" r="9.8" transform="translate(1.94 227.59) rotate(-80.78)" style="fill:#f0f0f0"></circle><path d="M128.46,94.33l-.12-.29a.52.52,0,0,0-.67-.28l-1.32.55a.52.52,0,0,0-.28.67l.12.29a.51.51,0,0,0,.67.27h0s.74,1.73,1,2.32c.47,1.28,1.54,4.57,2,6a.65.65,0,0,0,.87.41l.95-.4a.65.65,0,0,0,.34-.9c-.69-1.34-2.27-4.42-2.84-5.66-.26-.57-1-2.32-1-2.32h0A.5.5,0,0,0,128.46,94.33Z" style="fill:#f0f0f0"></path><path d="M140.68,129l.1.23a.42.42,0,0,0,.54.23l1.07-.45a.4.4,0,0,0,.22-.53l-.1-.24A.4.4,0,0,0,142,128h0s-.6-1.4-.78-1.88c-.38-1-1.24-3.69-1.62-4.85a.53.53,0,0,0-.7-.33l-.77.32a.53.53,0,0,0-.27.73c.55,1.08,1.83,3.58,2.29,4.58.21.46.77,1.87.77,1.87h0A.41.41,0,0,0,140.68,129Z" style="fill:#f0f0f0"></path><path d="M149.35,119.16l.19.08a.34.34,0,0,0,.44-.18l.37-.89a.35.35,0,0,0-.18-.45l-.2-.08a.33.33,0,0,0-.44.19h0s-1.17-.47-1.55-.65c-.83-.37-2.89-1.43-3.79-1.89a.44.44,0,0,0-.6.22l-.26.64a.42.42,0,0,0,.27.58c1,.31,3.16,1,4,1.34.39.15,1.55.64,1.55.64h0A.34.34,0,0,0,149.35,119.16Z" style="fill:#f0f0f0"></path><path d="M117.34,104.12,117,104a.5.5,0,0,0-.66.28l-.55,1.33a.51.51,0,0,0,.27.66l.3.12a.51.51,0,0,0,.66-.27h0s1.75.69,2.32,1c1.24.56,4.32,2.14,5.66,2.83a.65.65,0,0,0,.9-.34l.4-.95a.65.65,0,0,0-.41-.87c-1.43-.46-4.73-1.53-6-2-.59-.22-2.32-1-2.32-1h0A.51.51,0,0,0,117.34,104.12Z" style="fill:#f0f0f0"></path><path d="M118.34,118.11l-.23.1a.4.4,0,0,0-.22.52l.44,1a.41.41,0,0,0,.52.22l.23-.1a.39.39,0,0,0,.22-.52h0s1.37-.59,1.83-.76c1-.38,3.62-1.22,4.75-1.58a.53.53,0,0,0,.32-.7l-.31-.75a.52.52,0,0,0-.72-.26c-1,.54-3.49,1.79-4.47,2.24-.45.2-1.83.76-1.83.76h0A.4.4,0,0,0,118.34,118.11Z" style="fill:#f0f0f0"></path><path d="M153.05,106.39l.29-.12a.5.5,0,0,0,.27-.66l-.55-1.33a.5.5,0,0,0-.66-.28l-.29.12a.52.52,0,0,0-.28.67h0s-1.73.74-2.32,1c-1.27.47-4.57,1.54-6,2a.64.64,0,0,0-.4.87l.39.95a.65.65,0,0,0,.9.34c1.34-.69,4.43-2.27,5.66-2.83.58-.27,2.32-1,2.32-1h0A.52.52,0,0,0,153.05,106.39Z" style="fill:#f0f0f0"></path><path d="M127,128.09l-.1.23a.41.41,0,0,0,.22.53l1,.43a.39.39,0,0,0,.52-.21l.1-.23a.41.41,0,0,0-.22-.53h0s.55-1.38.76-1.83c.45-1,1.7-3.42,2.24-4.47a.52.52,0,0,0-.26-.72l-.76-.31a.51.51,0,0,0-.69.32c-.36,1.13-1.2,3.74-1.58,4.75-.17.46-.76,1.83-.76,1.83h0A.39.39,0,0,0,127,128.09Z" style="fill:#f0f0f0"></path><path d="M143.25,95.27l.12-.29a.51.51,0,0,0-.27-.67l-1.33-.55a.52.52,0,0,0-.67.28l-.12.29a.51.51,0,0,0,.28.66h0s-.7,1.75-1,2.32c-.57,1.24-2.15,4.32-2.83,5.66a.65.65,0,0,0,.33.9l.95.4a.66.66,0,0,0,.88-.41c.46-1.43,1.52-4.72,2-6,.22-.59,1-2.32,1-2.32h0A.5.5,0,0,0,143.25,95.27Z" style="fill:#f0f0f0"></path><path d="M145.1,101.64l.17-.18a.41.41,0,0,0,0-.57l-.83-.77a.39.39,0,0,0-.57,0l-.17.18a.4.4,0,0,0,0,.56h0s-1,1.1-1.35,1.45c-.76.76-2.79,2.6-3.67,3.4a.52.52,0,0,0,0,.76l.59.55A.51.51,0,0,0,140,107c.74-.93,2.44-3.07,3.15-3.88.32-.38,1.35-1.45,1.35-1.45h0A.41.41,0,0,0,145.1,101.64Z" style="fill:#e0e0e0"></path><path d="M124.14,121.75l-.14.14a.33.33,0,0,0,0,.46l.67.63a.32.32,0,0,0,.46,0l.13-.14a.32.32,0,0,0,0-.46h0s.81-.89,1.09-1.17c.62-.61,2.25-2.1,3-2.75a.4.4,0,0,0,0-.61l-.48-.45a.41.41,0,0,0-.61.05c-.6.75-2,2.48-2.55,3.13-.26.31-1.09,1.17-1.09,1.17h0A.33.33,0,0,0,124.14,121.75Z" style="fill:#e0e0e0"></path><path d="M134.06,124.76v.17a.28.28,0,0,0,.28.26l.76,0a.27.27,0,0,0,.26-.27v-.17a.26.26,0,0,0-.27-.26h0s-.05-1-.05-1.32c0-.72.09-2.55.13-3.34a.35.35,0,0,0-.36-.37l-.54,0a.36.36,0,0,0-.34.39c.1.78.3,2.6.35,3.32,0,.33,0,1.32,0,1.32h0A.27.27,0,0,0,134.06,124.76Z" style="fill:#e0e0e0"></path><path d="M134.43,96.84v-.25a.4.4,0,0,0-.42-.39l-1.13,0a.4.4,0,0,0-.39.41v.25a.4.4,0,0,0,.41.39h0s.07,1.48.07,2c0,1.07-.13,3.81-.19,5a.52.52,0,0,0,.54.55l.81,0a.51.51,0,0,0,.49-.58c-.13-1.18-.44-3.9-.52-5,0-.49-.06-2-.06-2h0A.41.41,0,0,0,134.43,96.84Z" style="fill:#e0e0e0"></path><path d="M124.7,102.12l-.15-.13a.33.33,0,0,0-.45,0l-.61.66a.32.32,0,0,0,0,.45l.14.13a.33.33,0,0,0,.45,0h0s.87.79,1.14,1.07c.6.6,2.06,2.2,2.69,2.89a.41.41,0,0,0,.6,0l.44-.47a.41.41,0,0,0-.05-.6c-.73-.58-2.42-1.93-3.07-2.49-.29-.26-1.14-1.07-1.14-1.07h0A.33.33,0,0,0,124.7,102.12Z" style="fill:#e0e0e0"></path><path d="M144.45,123.26l.18.17a.4.4,0,0,0,.56,0l.78-.83a.41.41,0,0,0,0-.57l-.18-.17a.41.41,0,0,0-.57,0h0s-1.09-1-1.44-1.35c-.76-.77-2.6-2.79-3.4-3.67a.52.52,0,0,0-.76,0l-.56.59a.52.52,0,0,0,.06.76c.93.74,3.07,2.44,3.88,3.15.37.32,1.45,1.35,1.45,1.35h0A.4.4,0,0,0,144.45,123.26Z" style="fill:#e0e0e0"></path><path d="M120.34,111.61h-.2a.31.31,0,0,0-.3.33l0,.9a.31.31,0,0,0,.32.3h.2a.33.33,0,0,0,.31-.33h0s1.17,0,1.56,0c.85,0,3,.1,3.95.15a.41.41,0,0,0,.43-.43l0-.64a.41.41,0,0,0-.46-.39c-.93.11-3.08.35-3.93.41-.39,0-1.56,0-1.56,0h0A.31.31,0,0,0,120.34,111.61Z" style="fill:#e0e0e0"></path><path d="M149.25,112.58h.25a.42.42,0,0,0,.39-.42l0-1.13a.4.4,0,0,0-.42-.39h-.25a.39.39,0,0,0-.38.41h0s-1.49.07-2,.07c-1.08,0-3.81-.13-5-.19a.51.51,0,0,0-.54.53l0,.82a.51.51,0,0,0,.57.49c1.18-.13,3.9-.44,5-.52.49,0,2-.06,2-.06h0A.4.4,0,0,0,149.25,112.58Z" style="fill:#e0e0e0"></path><path d="M126.82,95.55h0l.28.66,1.31-.54-.27-.67,0,0Z" style="fill:#e0e0e0"></path><path d="M128,93.74h0a.52.52,0,0,0-.3,0l-1.32.55a.48.48,0,0,0-.23.19h0c0,.11.5,0,1-.19S128,93.85,128,93.74Z" style="fill:#e0e0e0"></path><path d="M130.69,104.27l.95-.4a.65.65,0,0,0,.34-.9c-.69-1.34-2.27-4.42-2.84-5.66,0-.06-.06-.14-.09-.22.75,1.8,2.73,5.5,2.19,6.34a.94.94,0,0,1-1.52.14c0,.1.07.2.1.29A.65.65,0,0,0,130.69,104.27Z" style="fill:#e0e0e0"></path><path d="M142,128h0l-.23-.54-1.06.45.21.53,0,0Z" style="fill:#e0e0e0"></path><path d="M141.07,129.49h0a.5.5,0,0,0,.24,0l1.07-.45a.38.38,0,0,0,.18-.15h0c0-.09-.4,0-.81.15S141,129.41,141.07,129.49Z" style="fill:#e0e0e0"></path><path d="M138.88,121l-.77.32a.53.53,0,0,0-.27.73c.55,1.08,1.83,3.58,2.29,4.58l.08.18c-.61-1.46-2.21-4.45-1.78-5.13a.76.76,0,0,1,1.23-.11l-.08-.24A.53.53,0,0,0,138.88,121Z" style="fill:#e0e0e0"></path><path d="M149.54,117.8s0,0,0,0l-.44-.18-.37.88.44.18a0,0,0,0,1,0,0Z" style="fill:#e0e0e0"></path><path d="M149.85,119.21h0a.35.35,0,0,0,.12-.15l.37-.89a.35.35,0,0,0,0-.2h0c-.08,0-.25.22-.39.56S149.78,119.18,149.85,119.21Z" style="fill:#e0e0e0"></path><path d="M143.59,115.51l-.26.64a.42.42,0,0,0,.27.58c1,.31,3.16,1,4,1.34l.15.06c-1.21-.5-3.89-1.31-4-2-.07-.29,0-.72.65-.78l-.19-.1A.44.44,0,0,0,143.59,115.51Z" style="fill:#e0e0e0"></path><path d="M117,106.15l0,0,.66.26.55-1.31-.66-.28a.08.08,0,0,0,0,0Z" style="fill:#e0e0e0"></path><path d="M116.58,104.05h0a.48.48,0,0,0-.19.23l-.55,1.33a.49.49,0,0,0,0,.29h0c.11,0,.37-.34.58-.85S116.69,104.09,116.58,104.05Z" style="fill:#e0e0e0"></path><path d="M125.94,109.57l.4-.95a.65.65,0,0,0-.41-.87c-1.43-.46-4.73-1.53-6-2l-.23-.09c1.81.74,5.83,2,6,2.93.1.44,0,1.08-1,1.17l.28.15A.65.65,0,0,0,125.94,109.57Z" style="fill:#e0e0e0"></path><path d="M119.31,119.41s0,0,0,0l.52-.22-.43-1-.52.22,0,0Z" style="fill:#e0e0e0"></path><path d="M117.88,118.49h0a.37.37,0,0,0,0,.23l.44,1a.34.34,0,0,0,.15.18h0c.09,0,0-.39-.15-.8S118,118.46,117.88,118.49Z" style="fill:#e0e0e0"></path><path d="M126.2,116.34l-.31-.75a.52.52,0,0,0-.72-.26c-1,.54-3.49,1.79-4.47,2.24l-.18.08c1.43-.6,4.35-2.17,5-1.74a.74.74,0,0,1,.11,1.2l.24-.07A.53.53,0,0,0,126.2,116.34Z" style="fill:#e0e0e0"></path><path d="M151.82,104.75s0,0,0,0l-.66.28.55,1.31.66-.26,0,0Z" style="fill:#e0e0e0"></path><path d="M153.63,105.91h0a.49.49,0,0,0,0-.29l-.55-1.33a.43.43,0,0,0-.19-.23h0c-.1,0,0,.5.19,1S153.53,106,153.63,105.91Z" style="fill:#e0e0e0"></path><path d="M143.11,108.62l.39.95a.65.65,0,0,0,.9.34c1.34-.69,4.43-2.27,5.66-2.83l.23-.1c-1.81.75-5.51,2.73-6.34,2.2a.94.94,0,0,1-.14-1.53l-.3.1A.64.64,0,0,0,143.11,108.62Z" style="fill:#e0e0e0"></path><path d="M128.6,128.33l0,0,.21-.52-1-.43-.22.52h0Z" style="fill:#e0e0e0"></path><path d="M126.94,128.69h0a.38.38,0,0,0,.18.15l1,.43a.38.38,0,0,0,.23,0h0c0-.08-.27-.29-.67-.46S127,128.61,126.94,128.69Z" style="fill:#e0e0e0"></path><path d="M131.31,121.29l-.76-.31a.51.51,0,0,0-.69.32c-.36,1.13-1.2,3.74-1.58,4.75,0,0,0,.11-.07.17.59-1.42,1.55-4.6,2.32-4.77.35-.08.86,0,.92.78l.12-.22A.52.52,0,0,0,131.31,121.29Z" style="fill:#e0e0e0"></path><path d="M141.23,95l0,0-.27.67,1.32.54.28-.66h0Z" style="fill:#e0e0e0"></path><path d="M143.32,94.51h0a.6.6,0,0,0-.23-.19l-1.33-.55a.52.52,0,0,0-.3,0h0c-.05.11.33.37.84.58S143.28,94.62,143.32,94.51Z" style="fill:#e0e0e0"></path><path d="M137.8,103.87l.95.4a.66.66,0,0,0,.88-.41c.46-1.43,1.52-4.72,2-6l.08-.23c-.74,1.81-2,5.83-2.92,6-.45.1-1.09,0-1.18-1l-.14.28A.65.65,0,0,0,137.8,103.87Z" style="fill:#e0e0e0"></path><circle cx="95.65" cy="182.7" r="16.76" transform="translate(-62.63 50.51) rotate(-22.5)" style="fill:#f0f0f0"></circle><path d="M85,151.38l-.21-.5a.87.87,0,0,0-1.13-.47l-2.27.94a.87.87,0,0,0-.47,1.13l.21.5a.85.85,0,0,0,1.13.47h0s1.27,3,1.64,4c.81,2.18,2.64,7.82,3.42,10.27a1.13,1.13,0,0,0,1.5.69l1.62-.68a1.11,1.11,0,0,0,.57-1.54c-1.17-2.28-3.87-7.56-4.84-9.68-.44-1-1.64-4-1.64-4h0A.87.87,0,0,0,85,151.38Z" style="fill:#f0f0f0"></path><path d="M105.84,210.67l.17.4a.69.69,0,0,0,.91.38l1.84-.76a.7.7,0,0,0,.38-.92l-.17-.4a.7.7,0,0,0-.92-.38h0s-1-2.39-1.32-3.2c-.66-1.76-2.13-6.32-2.77-8.3a.89.89,0,0,0-1.2-.55l-1.32.54a.91.91,0,0,0-.46,1.25c1,1.84,3.13,6.11,3.91,7.82.36.79,1.33,3.2,1.33,3.2h0A.7.7,0,0,0,105.84,210.67Z" style="fill:#f0f0f0"></path><path d="M120.65,193.81l.33.14a.57.57,0,0,0,.76-.31l.63-1.52a.58.58,0,0,0-.32-.76l-.33-.14a.58.58,0,0,0-.76.32h0s-2-.8-2.65-1.1c-1.41-.65-4.94-2.45-6.47-3.23a.73.73,0,0,0-1,.38l-.45,1.08a.74.74,0,0,0,.46,1c1.63.53,5.41,1.75,6.86,2.29.68.25,2.65,1.1,2.65,1.1h0A.57.57,0,0,0,120.65,193.81Z" style="fill:#f0f0f0"></path><path d="M65.94,168.12l-.5-.21a.87.87,0,0,0-1.13.47l-.94,2.27a.86.86,0,0,0,.47,1.14l.5.2a.85.85,0,0,0,1.13-.47h0s3,1.2,4,1.64c2.12,1,7.39,3.67,9.67,4.84a1.12,1.12,0,0,0,1.55-.57l.67-1.62a1.12,1.12,0,0,0-.69-1.5c-2.44-.78-8.08-2.6-10.26-3.42-1-.37-4-1.64-4-1.64h0A.87.87,0,0,0,65.94,168.12Z" style="fill:#f0f0f0"></path><path d="M67.66,192l-.4.17a.68.68,0,0,0-.37.89l.74,1.8a.7.7,0,0,0,.9.37l.4-.17a.68.68,0,0,0,.37-.89h0s2.33-1,3.13-1.3c1.72-.64,6.18-2.08,8.11-2.7a.9.9,0,0,0,.55-1.18l-.54-1.29a.88.88,0,0,0-1.22-.45c-1.8.93-6,3.06-7.65,3.83-.77.35-3.13,1.29-3.13,1.29h0A.68.68,0,0,0,67.66,192Z" style="fill:#f0f0f0"></path><path d="M127,172l.5-.2a.88.88,0,0,0,.47-1.14l-.94-2.27a.88.88,0,0,0-1.14-.47l-.5.21a.87.87,0,0,0-.47,1.13h0s-3,1.27-4,1.64c-2.18.82-7.81,2.64-10.26,3.42a1.13,1.13,0,0,0-.69,1.5l.67,1.62a1.12,1.12,0,0,0,1.55.57c2.28-1.17,7.56-3.87,9.68-4.84,1-.44,4-1.64,4-1.64h0A.85.85,0,0,0,127,172Z" style="fill:#f0f0f0"></path><path d="M82.45,209.09l-.16.39a.69.69,0,0,0,.37.9l1.79.74a.68.68,0,0,0,.9-.37l.16-.4a.67.67,0,0,0-.37-.89h0s1-2.36,1.3-3.13c.76-1.67,2.9-5.84,3.82-7.65a.88.88,0,0,0-.45-1.22l-1.28-.53a.88.88,0,0,0-1.18.54c-.62,1.93-2.06,6.39-2.71,8.11-.29.8-1.29,3.13-1.29,3.13h0A.7.7,0,0,0,82.45,209.09Z" style="fill:#f0f0f0"></path><path d="M110.23,153l.21-.5a.87.87,0,0,0-.47-1.13l-2.27-.94a.88.88,0,0,0-1.14.47l-.21.5a.87.87,0,0,0,.47,1.13h0s-1.19,3-1.64,4c-1,2.12-3.66,7.4-4.83,9.68a1.11,1.11,0,0,0,.56,1.54l1.63.68a1.12,1.12,0,0,0,1.49-.69c.79-2.45,2.61-8.09,3.43-10.27.37-1,1.64-4,1.64-4h0A.85.85,0,0,0,110.23,153Z" style="fill:#f0f0f0"></path><path d="M113.39,163.88l.29-.31a.69.69,0,0,0,0-1l-1.42-1.33a.69.69,0,0,0-1,0l-.29.31a.69.69,0,0,0,0,1h0s-1.71,1.88-2.31,2.47c-1.3,1.3-4.76,4.45-6.26,5.81a.88.88,0,0,0,0,1.3l1,1a.89.89,0,0,0,1.3-.09c1.26-1.59,4.17-5.25,5.38-6.64.55-.64,2.31-2.47,2.31-2.47h0A.69.69,0,0,0,113.39,163.88Z" style="fill:#e0e0e0"></path><path d="M77.57,198.24l-.24.25a.55.55,0,0,0,0,.78l1.14,1.08a.56.56,0,0,0,.79,0l.23-.25a.55.55,0,0,0,0-.78h0s1.38-1.52,1.87-2c1-1,3.85-3.6,5.06-4.7a.72.72,0,0,0,0-1.05l-.82-.76a.72.72,0,0,0-1.05.07c-1,1.29-3.37,4.25-4.35,5.37-.45.51-1.87,2-1.87,2h0A.55.55,0,0,0,77.57,198.24Z" style="fill:#e0e0e0"></path><path d="M94.52,203.39v.29a.45.45,0,0,0,.47.44l1.3,0a.46.46,0,0,0,.44-.48v-.28a.47.47,0,0,0-.47-.45h0s-.08-1.69-.08-2.26c0-1.23.15-4.35.22-5.71a.6.6,0,0,0-.61-.62l-.93,0a.6.6,0,0,0-.57.66c.16,1.35.51,4.46.59,5.68,0,.57.08,2.27.08,2.27h0A.46.46,0,0,0,94.52,203.39Z" style="fill:#e0e0e0"></path><path d="M95.15,155.67l0-.43a.68.68,0,0,0-.7-.66l-1.94.06a.7.7,0,0,0-.67.71l0,.43a.68.68,0,0,0,.71.66h0s.11,2.54.11,3.38c0,1.84-.23,6.51-.32,8.54a.88.88,0,0,0,.91.93l1.39,0a.89.89,0,0,0,.85-1c-.24-2-.76-6.66-.89-8.49-.06-.85-.11-3.38-.11-3.38h0A.7.7,0,0,0,95.15,155.67Z" style="fill:#e0e0e0"></path><path d="M78.52,164.7l-.25-.23a.54.54,0,0,0-.76,0l-1.05,1.12a.54.54,0,0,0,0,.76l.25.23a.54.54,0,0,0,.77,0h0s1.48,1.35,2,1.82c1,1,3.51,3.77,4.59,5a.7.7,0,0,0,1,0l.75-.8a.69.69,0,0,0-.08-1c-1.25-1-4.15-3.3-5.24-4.26-.51-.43-2-1.82-2-1.82h0A.54.54,0,0,0,78.52,164.7Z" style="fill:#e0e0e0"></path><path d="M112.27,200.82l.31.29a.68.68,0,0,0,1,0l1.33-1.42a.69.69,0,0,0,0-1l-.32-.29a.68.68,0,0,0-1,0h0s-1.88-1.71-2.48-2.31c-1.29-1.3-4.44-4.76-5.8-6.26a.88.88,0,0,0-1.3,0l-.95,1a.89.89,0,0,0,.09,1.3c1.59,1.26,5.25,4.17,6.64,5.38.64.55,2.47,2.31,2.47,2.31h0A.69.69,0,0,0,112.27,200.82Z" style="fill:#e0e0e0"></path><path d="M71.07,180.91h-.33a.55.55,0,0,0-.53.56l.05,1.53a.54.54,0,0,0,.56.52h.34a.55.55,0,0,0,.53-.56h0s2-.09,2.67-.09c1.45,0,5.15.18,6.75.26a.7.7,0,0,0,.73-.72l0-1.1a.69.69,0,0,0-.78-.67c-1.59.18-5.26.6-6.71.7-.67,0-2.68.09-2.68.09h0A.54.54,0,0,0,71.07,180.91Z" style="fill:#e0e0e0"></path><path d="M120.48,182.58h.43a.69.69,0,0,0,.66-.71l-.06-1.94a.68.68,0,0,0-.71-.66h-.43a.68.68,0,0,0-.66.71h0s-2.54.11-3.38.11c-1.84,0-6.52-.22-8.54-.32a.88.88,0,0,0-.93.91l0,1.39a.88.88,0,0,0,1,.85c2-.23,6.67-.76,8.5-.89.84-.06,3.38-.11,3.38-.11h0A.69.69,0,0,0,120.48,182.58Z" style="fill:#e0e0e0"></path><path d="M82.15,153.47l.06,0,.48,1.13,2.25-.93-.46-1.14.06,0Z" style="fill:#e0e0e0"></path><path d="M84.12,150.37h0a.86.86,0,0,0-.5,0l-2.27.94a.83.83,0,0,0-.39.32v0c.08.18.85,0,1.72-.32S84.2,150.56,84.12,150.37Z" style="fill:#e0e0e0"></path><path d="M88.77,168.37l1.62-.68a1.11,1.11,0,0,0,.57-1.54c-1.17-2.28-3.87-7.56-4.84-9.68-.05-.1-.1-.23-.17-.38,1.29,3.09,4.68,9.41,3.76,10.84a1.61,1.61,0,0,1-2.6.23l.16.52A1.13,1.13,0,0,0,88.77,168.37Z" style="fill:#e0e0e0"></path><path d="M108.1,209l0,0-.38-.91-1.82.75.37.92,0,0Z" style="fill:#e0e0e0"></path><path d="M106.51,211.48h0a.69.69,0,0,0,.4,0l1.84-.76a.72.72,0,0,0,.31-.26v0c-.06-.14-.68,0-1.39.27S106.45,211.33,106.51,211.48Z" style="fill:#e0e0e0"></path><path d="M102.76,196.94l-1.32.54a.91.91,0,0,0-.46,1.25c1,1.84,3.13,6.11,3.91,7.82l.14.3c-1-2.49-3.78-7.6-3-8.75a1.3,1.3,0,0,1,2.11-.19l-.14-.42A.89.89,0,0,0,102.76,196.94Z" style="fill:#e0e0e0"></path><path d="M121,191.5l0,0-.76-.31-.62,1.51.75.32s0,0,0,0Z" style="fill:#e0e0e0"></path><path d="M121.51,193.9h0a.56.56,0,0,0,.22-.26l.63-1.52a.66.66,0,0,0,0-.34h0c-.12-.05-.42.38-.66,1S121.39,193.85,121.51,193.9Z" style="fill:#e0e0e0"></path><path d="M110.81,187.59l-.45,1.08a.74.74,0,0,0,.46,1c1.63.53,5.41,1.75,6.86,2.29l.26.1c-2.06-.85-6.65-2.24-6.9-3.35-.11-.5.06-1.24,1.12-1.34l-.32-.16A.73.73,0,0,0,110.81,187.59Z" style="fill:#e0e0e0"></path><path d="M65.44,171.58l0-.06,1.13.46.94-2.25-1.13-.48,0-.06Z" style="fill:#e0e0e0"></path><path d="M64.65,168h0a.88.88,0,0,0-.32.39l-.94,2.27a.82.82,0,0,0,0,.51h0c.19.07.63-.58,1-1.45S64.83,168.07,64.65,168Z" style="fill:#e0e0e0"></path><path d="M80.65,177.43l.67-1.62a1.12,1.12,0,0,0-.69-1.5c-2.44-.78-8.08-2.6-10.26-3.42l-.39-.15c3.09,1.28,10,3.35,10.32,5,.17.76-.08,1.86-1.67,2l.47.24A1.12,1.12,0,0,0,80.65,177.43Z" style="fill:#e0e0e0"></path><path d="M69.31,194.24a.43.43,0,0,0,0-.05l.89-.38L69.45,192l-.9.36,0,0Z" style="fill:#e0e0e0"></path><path d="M66.86,192.68h0a.79.79,0,0,0,0,.4l.74,1.8a.79.79,0,0,0,.26.31h0c.15-.06,0-.67-.25-1.36S67,192.62,66.86,192.68Z" style="fill:#e0e0e0"></path><path d="M81.09,189l-.54-1.29a.88.88,0,0,0-1.22-.45c-1.8.93-6,3.06-7.65,3.83l-.3.13c2.44-1,7.44-3.69,8.57-3a1.27,1.27,0,0,1,.18,2.06l.41-.13A.9.9,0,0,0,81.09,189Z" style="fill:#e0e0e0"></path><path d="M124.88,169.19s0,0,0,.06l-1.12.48.93,2.25,1.14-.46s0,0,0,.06Z" style="fill:#e0e0e0"></path><path d="M128,171.17h0a.9.9,0,0,0,0-.51l-.94-2.27a.88.88,0,0,0-.32-.39h0c-.18.08,0,.85.32,1.73S127.79,171.24,128,171.17Z" style="fill:#e0e0e0"></path><path d="M110,175.81l.67,1.62a1.12,1.12,0,0,0,1.55.57c2.28-1.17,7.56-3.87,9.68-4.84l.37-.16c-3.08,1.28-9.4,4.67-10.83,3.75a1.61,1.61,0,0,1-.24-2.6l-.51.16A1.13,1.13,0,0,0,110,175.81Z" style="fill:#e0e0e0"></path><path d="M85.19,209.48l0,0,.36-.9-1.77-.73-.38.88h0Z" style="fill:#e0e0e0"></path><path d="M82.35,210.11h0a.72.72,0,0,0,.31.26l1.79.74a.62.62,0,0,0,.4,0h0c.06-.15-.45-.5-1.14-.78S82.41,210,82.35,210.11Z" style="fill:#e0e0e0"></path><path d="M89.81,197.46l-1.28-.53a.88.88,0,0,0-1.18.54c-.62,1.93-2.06,6.39-2.71,8.11l-.11.31c1-2.44,2.64-7.87,4-8.16.6-.13,1.47.07,1.59,1.33l.19-.38A.88.88,0,0,0,89.81,197.46Z" style="fill:#e0e0e0"></path><path d="M106.77,152.48l0,0-.45,1.14,2.25.93.48-1.13.06,0Z" style="fill:#e0e0e0"></path><path d="M110.35,151.69s0,0,0,0a.88.88,0,0,0-.39-.32l-2.27-.94a.9.9,0,0,0-.51,0h0c-.07.19.57.63,1.45,1S110.28,151.87,110.35,151.69Z" style="fill:#e0e0e0"></path><path d="M100.91,167.69l1.63.68a1.12,1.12,0,0,0,1.49-.69c.79-2.45,2.61-8.09,3.43-10.27l.14-.38c-1.27,3.09-3.34,9.95-5,10.32-.76.16-1.86-.09-2-1.68l-.24.48A1.11,1.11,0,0,0,100.91,167.69Z" style="fill:#e0e0e0"></path></g><g id="freepik--Shadow--inject-133"><ellipse id="freepik--path--inject-133" cx="245.18" cy="412.39" rx="193.89" ry="11.32" style="fill:#f5f5f5"></ellipse></g><g id="freepik--Icon--inject-133"><path d="M371.41,295l2.78-2.55-5.76-14.3c3-2.65,6.79-6.28,6.79-6.28a4.14,4.14,0,0,0,1.23-4.38,1.08,1.08,0,0,0-.73-.8,4.13,4.13,0,0,0-4.46.85s-3.93,3.5-6.82,6.24l-13.69-7L348,269.36l12.31,8.56c-3.16,3.21-7.26,7.45-9.89,10.18l-7.16-3.25-1.64,1.51,6.22,6.05.71.77,5.45,6.76,1.64-1.51L353,291c2.93-2.39,7.51-6.12,11-9Z" style="fill:#167EA4"></path><path d="M373.27,305.18H342.93a7,7,0,0,1-7.08-7.76l2.65-30.34a8.65,8.65,0,0,1,8.44-7.77h30.34a7,7,0,0,1,7.09,7.77l-2.66,30.34A8.65,8.65,0,0,1,373.27,305.18Zm-26.53-43.57a6.09,6.09,0,0,0-5.94,5.47l-2.66,30.34a4.94,4.94,0,0,0,5,5.46h30.34a6.09,6.09,0,0,0,5.94-5.46l2.66-30.34a4.94,4.94,0,0,0-5-5.47Z" style="fill:#167EA4"></path><g style="opacity:0.5"><path d="M373.27,305.18H342.93a7,7,0,0,1-7.08-7.76l2.65-30.34a8.65,8.65,0,0,1,8.44-7.77h30.34a7,7,0,0,1,7.09,7.77l-2.66,30.34A8.65,8.65,0,0,1,373.27,305.18Zm-26.53-43.57a6.09,6.09,0,0,0-5.94,5.47l-2.66,30.34a4.94,4.94,0,0,0,5,5.46h30.34a6.09,6.09,0,0,0,5.94-5.46l2.66-30.34a4.94,4.94,0,0,0-5-5.47Z" style="fill:#fff"></path></g></g><g id="freepik--Checkmark--inject-133"><path d="M383.68,82.61c-5,0-6.85,2.29-10.05,5.62-2.61-3.33-4.1-5.62-9.06-5.62a9.2,9.2,0,0,0-9.6,8.77,12.61,12.61,0,0,0,3.75,9.68l6.46,7a21.92,21.92,0,0,1-7.83,6.68A12.16,12.16,0,0,0,368.78,112l2.53,2.76,15-13.73c3.48-3.15,5.17-6.6,5.44-9.68C392.21,86.11,389,82.61,383.68,82.61Z" style="fill:#167EA4"></path><path d="M383.68,82.61c-5,0-6.85,2.29-10.05,5.62-2.61-3.33-4.1-5.62-9.06-5.62a9.2,9.2,0,0,0-9.6,8.77,12.61,12.61,0,0,0,3.75,9.68l6.46,7a21.92,21.92,0,0,1-7.83,6.68A12.16,12.16,0,0,0,368.78,112l2.53,2.76,15-13.73c3.48-3.15,5.17-6.6,5.44-9.68C392.21,86.11,389,82.61,383.68,82.61Z" style="fill:#fff;opacity:0.5"></path><path d="M372.48,104.61,361.4,92.47a2.31,2.31,0,0,1,.28-3.24h0a2.28,2.28,0,0,1,3.24,0l8.12,8.9,18.8-17.29a2.3,2.3,0,0,1,3.24,0h0a2.31,2.31,0,0,1-.28,3.24Z" style="fill:#167EA4"></path></g><g id="freepik--Device--inject-133"><path d="M300.77,374.24H204.48a17.68,17.68,0,0,1-17.9-19.61l20.13-230.15A21.85,21.85,0,0,1,228,104.86h96.3a17.69,17.69,0,0,1,17.89,19.62L322.1,354.63A21.84,21.84,0,0,1,300.77,374.24Z" style="fill:#167EA4"></path><path d="M295.77,374.24H199.48a17.68,17.68,0,0,1-17.9-19.61l20.13-230.15A21.85,21.85,0,0,1,223,104.86h96.3a17.69,17.69,0,0,1,17.89,19.62L317.1,354.63A21.84,21.84,0,0,1,295.77,374.24Z" style="fill:#263238"></path><path d="M318.94,109.36h-25a3.63,3.63,0,0,0-3.48,2.85l-.16.78a8.89,8.89,0,0,1-8.5,7H258a7.15,7.15,0,0,1-7.28-7l0-.78a2.93,2.93,0,0,0-3-2.85h-25a16.83,16.83,0,0,0-16.44,15.12L186.08,354.63a13.62,13.62,0,0,0,13.79,15.11h96.29a16.82,16.82,0,0,0,16.44-15.11l20.13-230.15A13.63,13.63,0,0,0,318.94,109.36Z" style="fill:#167EA4"></path><path d="M318.94,109.36h-25a3.63,3.63,0,0,0-3.48,2.85l-.16.78a8.89,8.89,0,0,1-8.5,7H258a7.15,7.15,0,0,1-7.28-7l0-.78a2.93,2.93,0,0,0-3-2.85h-25a16.83,16.83,0,0,0-16.44,15.12L186.08,354.63a13.62,13.62,0,0,0,13.79,15.11h96.29a16.82,16.82,0,0,0,16.44-15.11l20.13-230.15A13.63,13.63,0,0,0,318.94,109.36Z" style="fill:#fff;opacity:0.8"></path><g style="opacity:0.7000000000000001"><path d="M264.75,111.91a2.13,2.13,0,0,1-2.08,1.92,1.73,1.73,0,0,1-1.75-1.92A2.14,2.14,0,0,1,263,110,1.73,1.73,0,0,1,264.75,111.91Z"></path><path d="M278.48,110h-6.56a2.13,2.13,0,0,0-2.08,1.91,1.73,1.73,0,0,0,1.74,1.92h6.56a2.13,2.13,0,0,0,2.08-1.92A1.73,1.73,0,0,0,278.48,110Z"></path></g><polygon points="217.09 119.9 219.12 119.9 219.3 117.88 217.27 117.88 217.09 119.9" style="fill:#167EA4"></polygon><polygon points="221.32 117.88 221.14 119.9 223.17 119.9 223.35 117.88 223.52 115.85 221.5 115.85 221.32 117.88" style="fill:#167EA4"></polygon><polygon points="225.73 113.83 225.55 115.85 225.37 117.88 225.19 119.9 227.22 119.9 227.4 117.88 227.57 115.85 227.75 113.83 225.73 113.83" style="fill:#167EA4"></polygon><path d="M312.8,114l-.13,1.49h-1l-.26,3h1l-.13,1.48h8.91l.52-5.94Zm3.57,4.46h-3l.26-3h3Z" style="fill:#167EA4"></path><path d="M332.73,124.48a13.86,13.86,0,0,0-3.59-10.79l-139.21,252a13.79,13.79,0,0,0,9.94,4.07h96.29a16.82,16.82,0,0,0,16.44-15.11Z" style="fill:#fff;opacity:0.30000000000000004"></path></g><g id="freepik--Code--inject-133"><polygon points="253.85 278.12 253.86 278.12 253.86 278.11 253.85 278.12" style="fill:#263238"></polygon><polygon points="261.08 256.72 261.08 256.71 261.07 256.71 261.07 256.72 261.08 256.72" style="fill:#263238"></polygon><polygon points="277.93 278.12 277.94 278.12 277.94 278.11 277.93 278.11 277.93 278.12" style="fill:#263238"></polygon><polygon points="246.63 299.53 246.63 299.52 246.63 299.52 246.63 299.53" style="fill:#263238"></polygon><path d="M275.49,275.45h-2.67c.08-.88.16-1.75.24-2.66h-2.68c.08-.92.16-1.81.24-2.69h-5.34c.08-.89.16-1.76.24-2.67h2.64c.16-1.81.32-3.58.47-5.35H266c.16-1.81.31-3.58.47-5.35h-5.34c-.07.87-.15,1.75-.23,2.64h-2.68c.07-.88.15-1.76.23-2.64h-2.69c-.32,3.59-.63,7.13-.94,10.67h-5.31c.16-1.78.31-3.55.47-5.33h2.63c.08-.9.16-1.78.24-2.69h-2.67c.08-.9.16-1.76.23-2.64H231.64c-.08.9-.16,1.78-.24,2.65H226c.08-.91.16-1.78.23-2.65h-2.63c-.16,1.78-.31,3.55-.47,5.35h2.63c-.07.9-.15,1.77-.23,2.67h-2.63c-.47,5.37-.94,10.7-1.4,16h2.65c.16-1.79.31-3.55.47-5.31h2.68c-.16,1.78-.31,3.54-.47,5.3h2.68c.16-1.78.31-3.55.47-5.31h2.67c-.08.89-.16,1.76-.24,2.67h2.68c-.08.9-.15,1.77-.23,2.64h5.35c.08-.9.15-1.77.23-2.65h2.66q-.69,8-1.4,16.06h5.36c-.16,1.8-.31,3.57-.46,5.34h2.68c.08-.91.15-1.78.23-2.69h2.68c.15-1.79.31-3.55.46-5.34h2.66c.08-.9.16-1.78.23-2.65h2.67c-.16,1.78-.31,3.54-.47,5.34h-2.64c-.08.91-.15,1.77-.23,2.67h2.67c-.08.91-.16,1.78-.23,2.65H260c.07-.9.15-1.76.23-2.66h8c.08-.91.15-1.79.23-2.66h2.68c.08-.92.16-1.8.24-2.7h5.33c.39-4.48.78-8.92,1.17-13.36h-2.67C275.33,277.21,275.41,276.33,275.49,275.45Zm-5.33,0h2.65c-.07.87-.15,1.74-.23,2.64h-2.65C270,277.23,270.09,276.35,270.16,275.45Zm-2.48-2.66c-.08.87-.16,1.74-.24,2.65H264.8c.07-.88.15-1.75.23-2.65Zm-28.23-13.38h5.31c-.15,1.76-.31,3.52-.46,5.32h-2.65c.08-.87.15-1.75.23-2.66h-2.66C239.3,261.17,239.38,260.31,239.45,259.41Zm-10.93,2.67h2.66l.23-2.69h2.65c-.15,1.78-.31,3.54-.46,5.33h-5.32C228.36,263.84,228.44,263,228.52,262.08Zm-3.61,10.68c.08-.88.16-1.75.24-2.66h2.63c.08-.9.16-1.77.24-2.66h5.35c-.08.86-.15,1.73-.24,2.65h2.69c-.08.89-.16,1.78-.23,2.67Zm10.45,2.66.24-2.65h2.66c-.07.88-.15,1.77-.22,2.65Zm2.69,0h2.66c-.08.92-.16,1.8-.24,2.68h-2.66Zm5.78-5.35h-2.66c-.07.88-.15,1.76-.23,2.68h-2.67l.24-2.67h-2.68c.15-1.77.31-3.54.47-5.35H239c-.08.92-.15,1.8-.23,2.67h5.33C244,268.3,243.91,269.18,243.83,270.08Zm2,8h-2.65c.16-1.76.31-3.53.47-5.32h2.65C246.12,274.55,246,276.31,245.8,278.11Zm-.65,8c.08-.88.15-1.75.23-2.65h5.32c-.07.88-.15,1.77-.23,2.65Zm2.21,5.33c.07-.87.15-1.74.23-2.65h2.65c-.08.88-.16,1.75-.23,2.65Zm16.47-5.33h-8c-.08.92-.16,1.8-.23,2.69l-5.33,0c.08-.88.15-1.77.23-2.66h2.66c.08-.9.16-1.77.24-2.68h5.35c.08-.9.15-1.76.23-2.65h5.34C264.15,282.58,264,284.34,263.83,286.14Zm-10-8c-.08.88-.15,1.75-.23,2.65h-5.34c.31-3.55.62-7.09.93-10.67h8c.15-1.8.31-3.56.46-5.35h2.67c-.07.88-.15,1.75-.23,2.65h2.67c-.23,2.68-.47,5.34-.7,8.05h2.68c-.07.87-.15,1.75-.23,2.67Zm9.55,13.4h5.32c-.07.88-.15,1.77-.23,2.65h-5.32C263.26,293.29,263.33,292.41,263.41,291.52Zm10.9-2.72h-8c.24-2.65.47-5.3.7-8h8C274.78,283.49,274.54,286.14,274.31,288.8Z" style="fill:#263238"></path><path d="M244.2,235.32H225.51q-.82,9.38-1.63,18.69h18.69Q243.38,244.65,244.2,235.32ZM240,251.21H226.93q.57-6.53,1.15-13.07h13.07Q240.58,244.68,240,251.21Z" style="fill:#263238"></path><path d="M273.68,235.33q-.82,9.38-1.64,18.69h18.69c.55-6.24,1.09-12.45,1.64-18.69Zm14.49,15.88H275.1q.57-6.53,1.14-13.07h13.07Z" style="fill:#263238"></path><path d="M219.66,302.19h18.68q.82-9.39,1.64-18.69H221.29C220.75,289.74,220.2,296,219.66,302.19Zm4.19-15.89h13.07q-.57,6.51-1.14,13.07H222.71C223.09,295,223.47,290.66,223.85,286.3Z" style="fill:#263238"></path><path d="M282.24,259.36h-2.68l.23-2.63h-2.68c-.07.9-.15,1.77-.23,2.67h-2.67c-.07.9-.15,1.77-.23,2.67h-2.66c-.08.87-.16,1.75-.24,2.66h2.67c-.08.92-.16,1.8-.23,2.69h2.67c.15-1.79.31-3.55.46-5.34h2.67c-.15,1.76-.31,3.52-.47,5.32h8.06c-.08.92-.16,1.8-.24,2.68h2.65c.24-2.69.47-5.34.7-8h-2.65l.24-2.69h2.65c.08-.9.16-1.77.23-2.64h-8C282.39,257.62,282.32,258.5,282.24,259.36Zm-.2,2.71h5.32c-.07.87-.15,1.75-.23,2.64h-5.32C281.88,263.85,282,263,282,262.07Z" style="fill:#263238"></path><polygon points="271.32 262.07 271.32 262.06 271.31 262.06 271.31 262.07 271.32 262.07" style="fill:#263238"></polygon><path d="M283.77,272.75h-5.36c.08-.88.16-1.75.23-2.64H276c-.16,1.78-.32,3.55-.47,5.33h2.68c-.08.91-.16,1.79-.24,2.67h2.68c-.15,1.81-.31,3.58-.46,5.35h5.33l.48-5.34h2.65c.16-1.81.31-3.57.47-5.37h-2.66c.08-.91.15-1.78.23-2.66H284C283.92,271,283.84,271.85,283.77,272.75Zm-.23,2.71h2.65c-.08.89-.15,1.77-.23,2.65h-2.65C283.39,277.23,283.47,276.36,283.54,275.46Z" style="fill:#263238"></path><polygon points="286.66 270.09 286.67 270.09 286.67 270.08 286.66 270.08 286.66 270.09" style="fill:#263238"></polygon><polygon points="285.5 283.46 285.49 283.46 285.49 283.47 285.5 283.46" style="fill:#263238"></polygon><polygon points="275.5 275.44 275.49 275.44 275.49 275.45 275.5 275.45 275.5 275.44" style="fill:#263238"></polygon><polygon points="276.06 299.52 276.06 299.53 276.07 299.53 276.07 299.52 276.06 299.52" style="fill:#263238"></polygon><path d="M281.87,294.18h-8c-.08.91-.16,1.78-.23,2.68H271c-.08.9-.16,1.77-.24,2.66h5.33c.08-.88.15-1.75.23-2.65H279l-.24,2.65h5.37c-.08.92-.16,1.8-.24,2.66h2.64c.31-3.57.62-7.11.93-10.66H282.1C282,292.41,282,293.28,281.87,294.18Z" style="fill:#263238"></path><path d="M254.22,243.32h2.66c.08-.91.15-1.77.23-2.67h-2.66c.08-.91.16-1.79.23-2.66h-5.36c.08-.93.16-1.8.23-2.67h-2.63c-.24,2.68-.47,5.33-.7,8h2.66c.08-.9.16-1.76.23-2.63h2.67c-.15,1.79-.31,3.56-.46,5.32H254C254.06,245.12,254.14,244.24,254.22,243.32Z" style="fill:#263238"></path><polygon points="254.68 237.98 254.68 237.99 254.69 237.99 254.68 237.98" style="fill:#263238"></polygon><polygon points="259.33 246 259.33 246.01 259.34 246.01 259.33 246" style="fill:#263238"></polygon><polygon points="248.17 251.36 248.17 251.35 248.16 251.35 248.17 251.36" style="fill:#263238"></polygon><polygon points="251.31 246.01 251.32 246.01 251.32 246 251.31 246 251.31 246.01 251.32 246.01 251.31 246.01" style="fill:#263238"></polygon><path d="M259.1,248.68l.23-2.67H254c-.08.88-.15,1.75-.23,2.65h-2.69l.24-2.65H246c-.08.91-.16,1.78-.23,2.68h2.66c-.08.91-.16,1.79-.24,2.66h2.69c-.08.93-.16,1.8-.23,2.67h2.66l.24-2.67h2.66c.08-.87.15-1.75.23-2.67Z" style="fill:#263238"></path><polygon points="253.99 246.01 253.99 246 253.98 246 253.98 246.01 253.99 246.01" style="fill:#263238"></polygon><polygon points="256.19 251.35 256.19 251.36 256.2 251.36 256.2 251.35 256.19 251.35" style="fill:#263238"></polygon><path d="M282.6,286.16c-.08.9-.15,1.76-.23,2.64h5.31c.16-1.78.31-3.55.47-5.33H285.5c-.08.89-.16,1.77-.24,2.69Z" style="fill:#263238"></path><polygon points="285.5 283.46 285.49 283.47 285.5 283.47 285.5 283.46" style="fill:#263238"></polygon><path d="M262.07,245.37l.39-4.72h-2.65c-.16,1.82-.31,3.59-.47,5.35H262C262,245.77,262.05,245.57,262.07,245.37Z" style="fill:#263238"></path><polygon points="259.33 246 259.34 246.01 259.34 246 259.33 246" style="fill:#263238"></polygon><path d="M241.07,302.18h5.32c.08-.9.16-1.78.23-2.65H241.3C241.22,300.43,241.14,301.31,241.07,302.18Z" style="fill:#263238"></path><polygon points="246.63 299.53 246.63 299.52 246.63 299.53 246.63 299.53" style="fill:#263238"></polygon><path d="M262.48,302.18h5.3c.08-.89.16-1.76.23-2.64h-5.3C262.63,300.44,262.55,301.32,262.48,302.18Z" style="fill:#263238"></path><polygon points="268.64 262.06 268.63 262.06 268.63 262.07 268.64 262.07 268.64 262.06" style="fill:#263238"></polygon><path d="M271.77,256.73h-2.66c-.16,1.79-.31,3.56-.47,5.33h2.67C271.46,260.28,271.62,258.51,271.77,256.73Z" style="fill:#263238"></path><path d="M251.77,302.17h2.64c.08-.89.15-1.75.23-2.63H252C251.92,300.44,251.85,301.31,251.77,302.17Z" style="fill:#263238"></path><path d="M257.57,235.33h-2.64c-.08.9-.16,1.77-.24,2.65h2.65C257.42,237.07,257.5,236.2,257.57,235.33Z" style="fill:#263238"></path><polygon points="254.68 237.98 254.69 237.99 254.69 237.98 254.68 237.98" style="fill:#263238"></polygon><polygon points="262.73 237.96 262.72 237.97 262.73 237.96 262.73 237.96" style="fill:#263238"></polygon><path d="M260.29,235.33c-.08.89-.15,1.75-.23,2.63h2.66l.24-2.63Z" style="fill:#263238"></path><polygon points="265.16 240.65 265.15 240.65 265.15 240.66 265.16 240.65" style="fill:#263238"></polygon><polygon points="262.72 237.97 262.73 237.97 262.73 237.96 262.72 237.97" style="fill:#263238"></polygon><polygon points="262.48 240.64 262.47 240.64 262.47 240.65 262.47 240.64 262.46 240.65 262.48 240.65 262.48 240.64" style="fill:#263238"></polygon><path d="M265.39,238h-2.66c-.08.89-.17,1.78-.25,2.67h2.67C265.23,239.77,265.31,238.89,265.39,238Z" style="fill:#263238"></path><path d="M270.72,238h-2.63c-.08.9-.16,1.78-.24,2.66h2.63C270.56,239.73,270.64,238.86,270.72,238Z" style="fill:#263238"></path><polygon points="278.73 299.53 278.74 299.53 278.74 299.52 278.74 299.52 278.73 299.53" style="fill:#263238"></polygon><path d="M275.84,302.18h2.66c.08-.9.16-1.78.23-2.65h-2.66C276,300.41,275.91,301.29,275.84,302.18Z" style="fill:#263238"></path><polygon points="248.17 251.36 248.16 251.35 248.16 251.36 248.17 251.36" style="fill:#263238"></polygon><path d="M245.28,254h2.65c.08-.9.16-1.77.23-2.65h-2.65C245.43,252.27,245.36,253.14,245.28,254Z" style="fill:#263238"></path><path d="M267.58,243.34c0-.34.07-.68.1-1l-.09,1h0q-.34,4-.7,8h2.66c.31-3.58.62-7.12.93-10.66h-2.64v0h-2.68c-.08.88-.15,1.76-.23,2.68Z" style="fill:#263238"></path><polygon points="265.16 240.65 265.15 240.66 265.16 240.66 265.16 240.65" style="fill:#263238"></polygon><polygon points="267.85 240.67 267.85 240.67 267.85 240.66 267.84 240.66 267.84 240.67 267.85 240.67 267.85 240.67" style="fill:#263238"></polygon><polygon points="258.87 251.36 258.88 251.36 258.88 251.35 258.87 251.35 258.87 251.36" style="fill:#263238"></polygon><polygon points="258.63 254.03 258.63 254.04 258.64 254.04 258.64 254.03 258.63 254.03" style="fill:#263238"></polygon><path d="M256.2,251.36c-.08.89-.16,1.77-.23,2.67h2.66l.24-2.67Z" style="fill:#263238"></path><polygon points="259.11 248.69 259.11 248.68 259.1 248.68 259.1 248.69 259.11 248.69" style="fill:#263238"></polygon><path d="M261.54,251.35c.08-.88.16-1.76.23-2.66h-2.66c-.08.89-.16,1.78-.23,2.66Z" style="fill:#263238"></path><path d="M261.31,254h-2.67c-.08.89-.15,1.78-.23,2.67h2.66Z" style="fill:#263238"></path><polygon points="261.31 254.04 261.32 254.04 261.32 254.03 261.31 254.03 261.31 254.04" style="fill:#263238"></polygon><polygon points="258.41 256.71 258.4 256.71 258.4 256.72 258.41 256.72 258.41 256.71" style="fill:#263238"></polygon><polygon points="261.55 251.36 261.55 251.35 261.54 251.35 261.54 251.36 261.55 251.36" style="fill:#263238"></polygon><path d="M264,254c.08-.91.16-1.78.24-2.67h-2.65c-.08.89-.15,1.78-.23,2.67Z" style="fill:#263238"></path><polygon points="253.85 278.12 253.86 278.11 253.85 278.11 253.85 278.12" style="fill:#263238"></polygon><path d="M259.42,275.43c.08-.9.16-1.77.23-2.64h-8c-.16,1.78-.31,3.54-.47,5.32h2.65c.08-.88.15-1.76.24-2.68Z" style="fill:#263238"></path><path d="M276,270.09h2.68c.08-.92.16-1.8.24-2.68h-2.69C276.13,268.34,276.05,269.22,276,270.09Z" style="fill:#263238"></path><path d="M272.09,283.48h-2.63c-.08.9-.15,1.77-.23,2.64h2.63C271.94,285.22,272,284.35,272.09,283.48Z" style="fill:#263238"></path><path d="M238.38,240.68h-8q-.36,4-.7,8h8Z" style="fill:#263238"></path><path d="M286.54,240.67h-8c-.23,2.67-.46,5.32-.7,8h8C286.07,246,286.31,243.32,286.54,240.67Z" style="fill:#263238"></path><path d="M225.47,296.82h8c.23-2.67.47-5.33.7-8h-8C225.94,291.5,225.71,294.15,225.47,296.82Z" style="fill:#263238"></path><path d="M219.16,248.89h-.68a.76.76,0,0,1-.76-.84L219,233.72a5.66,5.66,0,0,1,5.52-5.08h14.33a.76.76,0,0,1,.76.84l-.06.68a.94.94,0,0,1-.91.84H224.29a3,3,0,0,0-3,2.72l-1.26,14.33A.94.94,0,0,1,219.16,248.89Z" style="fill:#263238"></path><path d="M272.44,308l.06-.67a.94.94,0,0,1,.92-.85h14.32a3,3,0,0,0,2.95-2.72L292,289.46a.93.93,0,0,1,.91-.84h.68a.76.76,0,0,1,.77.84l-1.26,14.32a5.65,5.65,0,0,1-5.52,5.08H273.21A.75.75,0,0,1,272.44,308Z" style="fill:#263238"></path><path d="M297,248.89h-.68a.76.76,0,0,1-.76-.84l1.24-14.22a2.73,2.73,0,0,0-.32-1.63,2.48,2.48,0,0,0-2.15-1.19H280a.76.76,0,0,1-.77-.84l.06-.67a.93.93,0,0,1,.92-.84h14.13a4.94,4.94,0,0,1,3.34,1.17,4.65,4.65,0,0,1,1.49,3.91l-1.26,14.32A.94.94,0,0,1,297,248.89Z" style="fill:#263238"></path><path d="M217.47,308.86a4.61,4.61,0,0,1-3.75-1.83,5,5,0,0,1-.87-3.43l1.24-14.14a.93.93,0,0,1,.91-.84h.68a.75.75,0,0,1,.77.84l-1.25,14.23a2.66,2.66,0,0,0,.33,1.63,2.45,2.45,0,0,0,2.14,1.19H232a.75.75,0,0,1,.77.84l-.06.67a.93.93,0,0,1-.91.84Z" style="fill:#263238"></path></g><g id="freepik--Texts--inject-133"><path d="M224.33,190h2l-.93,10.58h-2Z" style="fill:#263238"></path><path d="M238,200.54l.6-7-4,5.8h-.87l-3-5.71-.6,6.92h-1.88l.93-10.58h1.61l3.59,7,4.74-7h1.62l-.91,10.58Z" style="fill:#263238"></path><path d="M252.39,200.54l.6-7-4,5.8h-.87l-3-5.71-.61,6.92h-1.87L243.6,190h1.61l3.59,7,4.74-7h1.62l-.91,10.58Z" style="fill:#263238"></path><path d="M258.34,199.46a4.46,4.46,0,0,1-.92-3.53l.52-6h2l-.52,5.9q-.27,3.1,2.42,3.11t2.95-3.11l.52-5.9h1.93l-.52,6a5.2,5.2,0,0,1-1.53,3.53,4.94,4.94,0,0,1-3.51,1.23A4.24,4.24,0,0,1,258.34,199.46Z" style="fill:#263238"></path><path d="M279.37,190l-.93,10.58h-1.61l-5.21-7.16-.63,7.16H269L270,190h1.62l5.21,7.17.63-7.17Z" style="fill:#263238"></path><path d="M282.21,190h2l-.93,10.58h-2Z" style="fill:#263238"></path><path d="M289,191.62h-3.51l.14-1.66h9l-.14,1.66H291l-.78,8.92h-2Z" style="fill:#263238"></path><path d="M300,196.81l-.32,3.73h-2l.32-3.7L294.43,190h2.1l2.65,5.15,3.58-5.15h1.93Z" style="fill:#263238"></path><path d="M215.25,347a4.58,4.58,0,0,1-1.86-1.94,5.1,5.1,0,0,1-.49-2.8,5.69,5.69,0,0,1,1-2.79,5.91,5.91,0,0,1,2.2-1.95,6.3,6.3,0,0,1,3-.7,5.8,5.8,0,0,1,2.33.45,4.28,4.28,0,0,1,1.7,1.32l-1.37,1.19a3.41,3.41,0,0,0-2.72-1.24,4.22,4.22,0,0,0-2,.48,4,4,0,0,0-1.46,1.32,4.11,4.11,0,0,0-.65,1.92,3.55,3.55,0,0,0,.32,1.92,3,3,0,0,0,1.23,1.33,3.78,3.78,0,0,0,1.91.47,4,4,0,0,0,2.93-1.25l1.17,1.21a5.5,5.5,0,0,1-1.94,1.31,6.44,6.44,0,0,1-2.42.46A5.58,5.58,0,0,1,215.25,347Z" style="fill:#263238"></path><path d="M226,347a4.62,4.62,0,0,1-1.87-1.95,5.08,5.08,0,0,1-.49-2.79,5.78,5.78,0,0,1,1-2.79,5.94,5.94,0,0,1,2.21-1.95,6.38,6.38,0,0,1,3-.7,5.69,5.69,0,0,1,2.86.7,4.57,4.57,0,0,1,1.87,1.95,5.06,5.06,0,0,1,.5,2.79,5.72,5.72,0,0,1-1,2.8,5.92,5.92,0,0,1-2.21,1.94,6.39,6.39,0,0,1-3,.71A5.7,5.7,0,0,1,226,347Zm5-1.49a3.91,3.91,0,0,0,1.44-1.33,4.12,4.12,0,0,0,.66-1.92,3.67,3.67,0,0,0-.32-1.91,3.06,3.06,0,0,0-1.21-1.33,3.59,3.59,0,0,0-1.87-.48,4.08,4.08,0,0,0-1.95.48,3.91,3.91,0,0,0-1.44,1.33,4.11,4.11,0,0,0-.65,1.91,3.68,3.68,0,0,0,.31,1.92,3.08,3.08,0,0,0,1.22,1.33A3.62,3.62,0,0,0,229,346,4.13,4.13,0,0,0,231,345.5Z" style="fill:#263238"></path><path d="M247,337l-5.54,10.58h-1.93L235.79,337h2.13l2.81,8.17L245,337Z" style="fill:#263238"></path><path d="M248.08,337h2l-.92,10.58h-2Z" style="fill:#263238"></path><path d="M252.9,337h4.63a6.26,6.26,0,0,1,3,.66,4.33,4.33,0,0,1,1.88,1.86,5,5,0,0,1,.48,2.77,5.53,5.53,0,0,1-3.17,4.64,7,7,0,0,1-3.07.65H252Zm3.76,8.92a4.89,4.89,0,0,0,2.09-.44,3.78,3.78,0,0,0,1.47-1.27,4.06,4.06,0,0,0,.64-1.92,3.6,3.6,0,0,0-.31-1.91,2.79,2.79,0,0,0-1.25-1.27,4.2,4.2,0,0,0-2-.45h-2.57l-.63,7.26Z" style="fill:#263238"></path><path d="M264.39,342.56h4.16l-.14,1.57h-4.16Z" style="fill:#263238"></path><path d="M273.89,337,273,347.54h-2l.78-8.93h-2.24l.15-1.65Z" style="fill:#263238"></path><path d="M282.83,338.17a5.36,5.36,0,0,1,.86,3.9,7.06,7.06,0,0,1-.91,3.05,5.16,5.16,0,0,1-2,1.92,5.8,5.8,0,0,1-2.78.66,6,6,0,0,1-1.51-.18,3.8,3.8,0,0,1-1.21-.5l.86-1.49a3.32,3.32,0,0,0,2,.52,3.36,3.36,0,0,0,2.48-.94,4.22,4.22,0,0,0,1.09-2.71h0a3.21,3.21,0,0,1-1.26.82,4.63,4.63,0,0,1-1.66.28,4,4,0,0,1-1.84-.4,2.76,2.76,0,0,1-1.2-1.14,3,3,0,0,1-.32-1.71,3.56,3.56,0,0,1,.67-1.81,4,4,0,0,1,1.5-1.2,4.75,4.75,0,0,1,2-.42A3.91,3.91,0,0,1,282.83,338.17Zm-2,3.27a1.84,1.84,0,0,0,.71-1.3,1.5,1.5,0,0,0-.47-1.28,2.2,2.2,0,0,0-1.57-.51,2.47,2.47,0,0,0-1.54.49,1.83,1.83,0,0,0-.69,1.31,1.55,1.55,0,0,0,.46,1.32,2.18,2.18,0,0,0,1.5.48A2.49,2.49,0,0,0,280.87,341.44Z" style="fill:#263238"></path></g><g id="freepik--Button--inject-133"><path d="M313.13,173.36H215.8a7.24,7.24,0,0,1-7.33-8L209.89,149a9,9,0,0,1,8.75-8H316a7.24,7.24,0,0,1,7.33,8l-1.42,16.33A9,9,0,0,1,313.13,173.36Z" style="fill:#167EA4"></path><g style="opacity:0.9"><path d="M223.18,153.69l-.61,6.93h-1.28l.25-3H218l-.26,3h-1.29l.61-6.93h1.29l-.25,2.86h3.58l.25-2.86Z" style="fill:#fff"></path><path d="M229.73,159.54l-.1,1.08h-5.2l.61-6.93h5.06l-.1,1.08h-3.77l-.16,1.8h3.35l-.09,1.06H226l-.17,1.91Z" style="fill:#fff"></path><path d="M235.7,159h-3.46l-.83,1.6h-1.32l3.72-6.93h1.27l2.52,6.93h-1.35Zm-.34-1-1-3-1.56,3Z" style="fill:#fff"></path><path d="M239.09,153.69h1.28l-.51,5.84h3.63l-.1,1.09h-4.91Z" style="fill:#fff"></path><path d="M245.69,154.78h-2.3l.09-1.09h5.88l-.09,1.09H247l-.51,5.84h-1.29Z" style="fill:#fff"></path><path d="M256.49,153.69l-.6,6.93H254.6l.26-3h-3.59l-.25,3h-1.29l.6-6.93h1.29l-.25,2.86H255l.25-2.86Z" style="fill:#fff"></path><path d="M265.48,154a2,2,0,0,1,.95.85,2.18,2.18,0,0,1,.24,1.32,2.56,2.56,0,0,1-.47,1.31,2.61,2.61,0,0,1-1.1.85,4,4,0,0,1-1.59.3h-1.57l-.17,2h-1.29l.61-6.93h2.85A3.62,3.62,0,0,1,265.48,154Zm-.63,3.18a1.31,1.31,0,0,0,.52-1,1.12,1.12,0,0,0-.34-1,1.85,1.85,0,0,0-1.25-.36h-1.5l-.24,2.75h1.5A2.1,2.1,0,0,0,264.85,157.17Z" style="fill:#fff"></path><path d="M271.86,159h-3.47l-.82,1.6h-1.33l3.73-6.93h1.26l2.52,6.93h-1.34Zm-.34-1-1-3-1.57,3Z" style="fill:#fff"></path><path d="M275.25,160.49a2.8,2.8,0,0,1-1.13-.6l.53-1a3.17,3.17,0,0,0,1,.55,3.64,3.64,0,0,0,1.22.21,2.19,2.19,0,0,0,1.17-.25.81.81,0,0,0,.44-.65.58.58,0,0,0-.17-.49,1.28,1.28,0,0,0-.51-.3,7.77,7.77,0,0,0-.87-.25,9.67,9.67,0,0,1-1.25-.38,1.83,1.83,0,0,1-.79-.59,1.46,1.46,0,0,1-.26-1.08,2,2,0,0,1,.41-1,2.28,2.28,0,0,1,1-.75,3.93,3.93,0,0,1,1.57-.28,4.61,4.61,0,0,1,1.23.16,3.18,3.18,0,0,1,1,.45l-.49,1a4,4,0,0,0-.92-.4,3.52,3.52,0,0,0-.95-.14,2.13,2.13,0,0,0-1.15.26.87.87,0,0,0-.43.68.58.58,0,0,0,.17.49,1.39,1.39,0,0,0,.51.29,7.77,7.77,0,0,0,.87.25,8.47,8.47,0,0,1,1.23.37,2,2,0,0,1,.8.59,1.45,1.45,0,0,1,.26,1.07,2,2,0,0,1-.41,1,2.32,2.32,0,0,1-1,.74,3.88,3.88,0,0,1-1.56.28A5.1,5.1,0,0,1,275.25,160.49Z" style="fill:#fff"></path><path d="M281.47,160.49a2.94,2.94,0,0,1-1.13-.6l.54-1a3.12,3.12,0,0,0,1,.55,3.7,3.7,0,0,0,1.23.21,2.21,2.21,0,0,0,1.17-.25.81.81,0,0,0,.44-.65.58.58,0,0,0-.17-.49,1.28,1.28,0,0,0-.51-.3c-.22-.08-.51-.16-.87-.25a9.2,9.2,0,0,1-1.25-.38,1.78,1.78,0,0,1-.79-.59,1.46,1.46,0,0,1-.26-1.08,2,2,0,0,1,.4-1,2.32,2.32,0,0,1,1-.75,3.92,3.92,0,0,1,1.56-.28,4.63,4.63,0,0,1,1.24.16,3.18,3.18,0,0,1,1,.45l-.5,1a3.7,3.7,0,0,0-.91-.4,3.52,3.52,0,0,0-.95-.14,2.17,2.17,0,0,0-1.16.26.9.9,0,0,0-.43.68.61.61,0,0,0,.17.49,1.53,1.53,0,0,0,.52.29,7.77,7.77,0,0,0,.87.25,8.88,8.88,0,0,1,1.23.37,2,2,0,0,1,.8.59,1.45,1.45,0,0,1,.25,1.07,1.91,1.91,0,0,1-.4,1,2.32,2.32,0,0,1-1,.74,3.93,3.93,0,0,1-1.57.28A5.2,5.2,0,0,1,281.47,160.49Z" style="fill:#fff"></path><path d="M292.09,154a1.94,1.94,0,0,1,1,.85,2.18,2.18,0,0,1,.24,1.32,2.56,2.56,0,0,1-.47,1.31,2.61,2.61,0,0,1-1.1.85,4,4,0,0,1-1.59.3h-1.57l-.17,2h-1.29l.61-6.93h2.85A3.62,3.62,0,0,1,292.09,154Zm-.63,3.18a1.35,1.35,0,0,0,.53-1,1.15,1.15,0,0,0-.35-1,1.85,1.85,0,0,0-1.25-.36h-1.5l-.24,2.75h1.5A2.1,2.1,0,0,0,291.46,157.17Z" style="fill:#fff"></path><path d="M295.64,160.26a3,3,0,0,1-1.23-1.28,3.25,3.25,0,0,1-.32-1.82,3.66,3.66,0,0,1,.64-1.83,3.82,3.82,0,0,1,1.45-1.28,4.12,4.12,0,0,1,1.95-.46,3.68,3.68,0,0,1,1.87.46,3,3,0,0,1,1.22,1.27,3.32,3.32,0,0,1,.33,1.84,3.71,3.71,0,0,1-.65,1.83,3.92,3.92,0,0,1-1.44,1.27,4.18,4.18,0,0,1-1.95.46A3.68,3.68,0,0,1,295.64,160.26Zm3.24-1a2.64,2.64,0,0,0,.95-.87,2.74,2.74,0,0,0,.42-1.25,2.49,2.49,0,0,0-.2-1.26,2,2,0,0,0-.8-.87,2.33,2.33,0,0,0-1.22-.31,2.6,2.6,0,0,0-1.27.31,2.56,2.56,0,0,0-.95.87,2.64,2.64,0,0,0-.43,1.26,2.37,2.37,0,0,0,.21,1.25,2,2,0,0,0,.79.87,2.36,2.36,0,0,0,1.22.31A2.63,2.63,0,0,0,298.88,159.28Z" style="fill:#fff"></path><path d="M307.15,160.62l-1.24-2h-1.83l-.18,2h-1.29l.61-6.93h2.85a3.58,3.58,0,0,1,1.54.3,1.94,1.94,0,0,1,.95.85,2.18,2.18,0,0,1,.24,1.32,2.5,2.5,0,0,1-.49,1.34,2.53,2.53,0,0,1-1.17.84l1.39,2.28Zm0-5.48a1.82,1.82,0,0,0-1.24-.36h-1.51l-.24,2.76h1.5a2.1,2.1,0,0,0,1.31-.36,1.39,1.39,0,0,0,.53-1A1.13,1.13,0,0,0,307.16,155.14Z" style="fill:#fff"></path><path d="M311.67,154.78h-2.3l.1-1.09h5.88l-.1,1.09H313l-.51,5.84h-1.28Z" style="fill:#fff"></path></g></g><g id="freepik--Character--inject-133"><path d="M124.09,344.92h-2.35l3.58-68.36a5.68,5.68,0,0,0-5.73-6h-8.31a6.45,6.45,0,0,0-6.36,6l-3.58,68.36H99l3.58-68.36a9,9,0,0,1,8.84-8.4h8.31a7.89,7.89,0,0,1,8,8.4Z" style="fill:#263238"></path><g style="opacity:0.6000000000000001"><path d="M124.09,344.92h-2.35l3.58-68.36a5.68,5.68,0,0,0-5.73-6h-8.31a6.45,6.45,0,0,0-6.36,6l-3.58,68.36H99l3.58-68.36a9,9,0,0,1,8.84-8.4h8.31a7.89,7.89,0,0,1,8,8.4Z" style="fill:#fff"></path></g><path d="M104.91,288l.6-11.48a5.82,5.82,0,0,1,5.74-5.45h8.31a5.12,5.12,0,0,1,5.17,5.45l-.6,11.48a1.16,1.16,0,0,0,1.16,1.22h1.08a1.3,1.3,0,0,0,1.29-1.22l.6-11.48a8.44,8.44,0,0,0-8.51-9h-8.31a9.57,9.57,0,0,0-9.46,9l-.6,11.48a1.14,1.14,0,0,0,1.16,1.22h1.08A1.32,1.32,0,0,0,104.91,288Z" style="fill:#263238"></path><path d="M104.91,288l.6-11.48a5.82,5.82,0,0,1,5.74-5.45h8.31a5.12,5.12,0,0,1,5.17,5.45l-.6,11.48a1.16,1.16,0,0,0,1.16,1.22h1.08a1.3,1.3,0,0,0,1.29-1.22l.6-11.48a8.44,8.44,0,0,0-8.51-9h-8.31a9.57,9.57,0,0,0-9.46,9l-.6,11.48a1.14,1.14,0,0,0,1.16,1.22h1.08A1.32,1.32,0,0,0,104.91,288Z" style="fill:#fff;opacity:0.2"></path><path d="M124.45,325H112.06l-4,76.89h12.39a8.12,8.12,0,0,0,8-7.62l3.23-61.65A7.15,7.15,0,0,0,124.45,325Z" style="fill:#167EA4"></path><path d="M124.45,325H112.06l-4,76.89h12.39a8.12,8.12,0,0,0,8-7.62l3.23-61.65A7.15,7.15,0,0,0,124.45,325Z" style="opacity:0.2"></path><path d="M109.2,401.93H77.76a7.16,7.16,0,0,1-7.22-7.62l3.23-61.65a8.12,8.12,0,0,1,8-7.62h31.44a7.16,7.16,0,0,1,7.22,7.62l-3.23,61.65A8.12,8.12,0,0,1,109.2,401.93Z" style="fill:#167EA4"></path><path d="M114.7,409h-1.17a1.28,1.28,0,0,1-1.29-1.36l.32-6.09h5.88l-2.39,6.5A1.44,1.44,0,0,1,114.7,409Z" style="fill:#263238"></path><path d="M84.11,409H82.93a1.28,1.28,0,0,1-1.29-1.36l.32-6.09h5.89l-2.4,6.5A1.44,1.44,0,0,1,84.11,409Z" style="fill:#263238"></path><path d="M114.7,409h-1.17a1.28,1.28,0,0,1-1.29-1.36l.32-6.09h5.88l-2.39,6.5A1.44,1.44,0,0,1,114.7,409Z" style="fill:#fff;opacity:0.2"></path><path d="M84.11,409H82.93a1.28,1.28,0,0,1-1.29-1.36l.32-6.09h5.89l-2.4,6.5A1.44,1.44,0,0,1,84.11,409Z" style="fill:#fff;opacity:0.2"></path><path d="M81.9,409.06a3.7,3.7,0,0,1-3.65,3.46A3.25,3.25,0,0,1,75,409.06a3.71,3.71,0,0,1,3.65-3.47A3.26,3.26,0,0,1,81.9,409.06Z" style="fill:#263238"></path><path d="M80.35,409.06a2,2,0,0,1-2,1.91,1.8,1.8,0,0,1-1.82-1.91,2,2,0,0,1,2-1.92A1.81,1.81,0,0,1,80.35,409.06Z" style="fill:#167EA4"></path><path d="M112.36,409.06a3.69,3.69,0,0,1-3.64,3.46,3.25,3.25,0,0,1-3.29-3.46,3.69,3.69,0,0,1,3.65-3.47A3.26,3.26,0,0,1,112.36,409.06Z" style="fill:#263238"></path><path d="M110.81,409.06a2,2,0,0,1-2,1.91,1.8,1.8,0,0,1-1.82-1.91,2,2,0,0,1,2-1.92A1.79,1.79,0,0,1,110.81,409.06Z" style="fill:#167EA4"></path><path d="M80.33,359.52h29.45a1.52,1.52,0,0,0,1.5-1.42l.91-17.4a1.34,1.34,0,0,0-1.35-1.43H81.4a1.52,1.52,0,0,0-1.5,1.43L79,358.1A1.33,1.33,0,0,0,80.33,359.52Z" style="fill:#167EA4"></path><path d="M80.33,359.52h29.45a1.52,1.52,0,0,0,1.5-1.42l.91-17.4a1.34,1.34,0,0,0-1.35-1.43H81.4a1.52,1.52,0,0,0-1.5,1.43L79,358.1A1.33,1.33,0,0,0,80.33,359.52Z" style="opacity:0.2"></path><path d="M81.4,339.27h29.44a1.34,1.34,0,0,1,1.35,1.43l-.24,4.52a2,2,0,0,1-2,1.9H81.46a1.79,1.79,0,0,1-1.8-1.9l.24-4.52A1.52,1.52,0,0,1,81.4,339.27Z" style="fill:#167EA4"></path><path d="M81.4,339.27h29.44a1.34,1.34,0,0,1,1.35,1.43l-.24,4.52a2,2,0,0,1-2,1.9H81.46a1.79,1.79,0,0,1-1.8-1.9l.24-4.52A1.52,1.52,0,0,1,81.4,339.27Z" style="fill:#fff;opacity:0.2"></path><polygon points="81.33 355.14 109.24 355.14 109.3 353.96 81.39 353.96 81.33 355.14" style="fill:#fff;opacity:0.30000000000000004"></polygon><path d="M77.39,392.87h33.23a1.71,1.71,0,0,0,1.69-1.6l1-19.65a1.5,1.5,0,0,0-1.52-1.6H78.59a1.71,1.71,0,0,0-1.69,1.6l-1,19.65A1.51,1.51,0,0,0,77.39,392.87Z" style="fill:#167EA4"></path><path d="M77.39,392.87h33.23a1.71,1.71,0,0,0,1.69-1.6l1-19.65a1.5,1.5,0,0,0-1.52-1.6H78.59a1.71,1.71,0,0,0-1.69,1.6l-1,19.65A1.51,1.51,0,0,0,77.39,392.87Z" style="opacity:0.2"></path><path d="M78.59,370h33.23a1.5,1.5,0,0,1,1.52,1.6l-.26,5.1a2.3,2.3,0,0,1-2.26,2.15H78.67a2,2,0,0,1-2-2.15l.27-5.1A1.71,1.71,0,0,1,78.59,370Z" style="fill:#167EA4"></path><path d="M78.59,370h33.23a1.5,1.5,0,0,1,1.52,1.6l-.26,5.1a2.3,2.3,0,0,1-2.26,2.15H78.67a2,2,0,0,1-2-2.15l.27-5.1A1.71,1.71,0,0,1,78.59,370Z" style="fill:#fff;opacity:0.2"></path><polygon points="78.52 387.93 110.02 387.93 110.09 386.59 78.59 386.59 78.52 387.93" style="fill:#fff;opacity:0.30000000000000004"></polygon><polygon points="178.18 394.19 178.34 402.19 170.76 402.19 169.93 394.19 178.18 394.19" style="fill:#eec1bb"></polygon><path d="M177.41,401l-7.51.16a.69.69,0,0,0-.67.55l-1.44,7.09a1.17,1.17,0,0,0,.9,1.38,1,1,0,0,0,.24,0c3.13-.11,5.91-.33,9.8-.4,4.6-.08,3.45.49,8.85.47,3.26,0,3.79-3.73,2.4-3.88-6.33-.68-8.19-2.58-10.67-4.8A2.82,2.82,0,0,0,177.41,401Z" style="fill:#263238"></path><path d="M176.09,248l3.75,151.25h-11s-4.58-36.07-4.73-54.35c0-.38,0-.75,0-1.11a97.43,97.43,0,0,0-1-14.38l0-.3c-2-13.87-6.14-39-9.73-42.61-5-5-11.75-12.69-7.25-35.84Z" style="fill:#263238"></path><path d="M176.09,248l3.75,151.25h-11s-4.58-36.07-4.73-54.35c0-.38,0-.75,0-1.11a97.43,97.43,0,0,0-1-14.38l0-.3c-2-13.87-6.14-39-9.73-42.61-5-5-11.75-12.69-7.25-35.84Z" style="fill:#fff;opacity:0.30000000000000004"></path><path d="M152.65,285.82l3.36-9.63,2-9.67h2.17s1.32,15.27-1.19,38.42c-1.78-8.88-3.78-16.55-5.65-18.42Z" style="opacity:0.2"></path><polygon points="141.32 394.89 140.21 402.81 132.72 402.6 133.18 393.57 141.32 394.89" style="fill:#eec1bb"></polygon><path d="M163.29,251l-21.2,148.25-10.41-1s1.37-39.9,3.93-57.07c.06-.42.12-.83.19-1.23a71.19,71.19,0,0,0,.87-14.65v-.17c-.45-10.09-1.1-26.21-1.33-37.63-.17-9-1.55-14.12,2.75-35.88Z" style="fill:#263238"></path><path d="M163.29,251l-21.2,148.25-10.41-1s1.37-39.9,3.93-57.07c.06-.42.12-.83.19-1.23a71.19,71.19,0,0,0,.87-14.65v-.17c-.45-10.09-1.1-26.21-1.33-37.63-.17-9-1.55-14.12,2.75-35.88Z" style="fill:#fff;opacity:0.30000000000000004"></path><path d="M139.83,401l-7.51.16a.68.68,0,0,0-.67.55l-1.44,7.09a1.16,1.16,0,0,0,.89,1.38,1.06,1.06,0,0,0,.25,0c3.13-.11,5.91-.33,9.8-.4,4.6-.08,3.44.49,8.85.47,3.25,0,3.78-3.73,2.4-3.88-6.33-.68-8.19-2.58-10.67-4.8A2.82,2.82,0,0,0,139.83,401Z" style="fill:#263238"></path><path d="M203.13,237.52l9,2.84,5.18-.33a2.71,2.71,0,0,1,2.24,1l.07.08a3.2,3.2,0,0,1-.05,4.17l-1.64,1.83a2.68,2.68,0,0,1-3.32.59l-4.5-2.48-9.45-3.33Z" style="fill:#eec1bb"></path><polygon points="205.14 237.53 209.33 238.36 207.03 245.19 203.13 243.36 205.14 237.53" style="fill:#167EA4"></polygon><polygon points="205.14 237.53 209.33 238.36 207.03 245.19 203.13 243.36 205.14 237.53" style="fill:#fff;opacity:0.8"></polygon><path d="M172.39,190s10.89,31.3,17.25,36,17.05,11,17.05,11l-2.48,8.17s-14.76-5.47-20.3-9.17c-6.47-4.31-10.43-13.38-11.52-18.91C171.09,210.48,171.12,195,172.39,190Z" style="fill:#167EA4"></path><path d="M176.22,200.28c1,8.42,2.93,23.68,5.09,33.63-4.93-4.72-8-12.06-8.92-16.8-1.3-6.63-1.27-22.09,0-27.09C172.39,190,174,194.48,176.22,200.28Z" style="opacity:0.1"></path><path d="M147,165.63c.64,4.54,1.1,12.39-1.36,16.38a2.41,2.41,0,0,0,.36,3,16.48,16.48,0,0,0,10.6,5.2c5.2.47,5.71-2.31,4.81-4.54a2.38,2.38,0,0,0-1.33-1.31c-4.83-1.84-4.94-6.18-3.8-9.89Z" style="fill:#eec1bb"></path><path d="M150.81,169.25l5.51,5.18a15.78,15.78,0,0,0-.56,2.8,7.89,7.89,0,0,1-5.58-4.84C149.71,170.91,150.24,169.39,150.81,169.25Z" style="opacity:0.2;isolation:isolate"></path><path d="M158.68,161c-4.26-3.84-5.72-10.32-5.05-11.56s6.71-4.06,7.64-3.3c4.67,3.65,2,12.16,2,12.16l1.33,2.72Z" style="fill:#263238"></path><path d="M158.68,161c-4.26-3.84-5.72-10.32-5.05-11.56s6.71-4.06,7.64-3.3c4.67,3.65,2,12.16,2,12.16l1.33,2.72Z" style="opacity:0.6000000000000001"></path><path d="M145.51,158.17c.53,6.91.49,11,4,14.46,5.33,5.26,13.82,2,15.35-5,1.39-6.27.28-16.48-6.52-19.13a9.44,9.44,0,0,0-12.87,9.63Z" style="fill:#eec1bb"></path><path d="M144.21,162.78c-3.85-4.24-5.32-11.26-4.49-12.38,2.23-3,7.29-3.24,10.51-.79,4.73,3.55-1.19,11-1.19,11l1.06,2.86Z" style="fill:#263238"></path><path d="M156.36,160c0,.57.31,1,.68,1s.66-.46.65-1-.32-1-.69-1S156.35,159.44,156.36,160Z" style="fill:#263238"></path><path d="M162.72,159.9c0,.56.31,1,.68,1s.66-.47.65-1-.32-1-.69-1S162.71,159.34,162.72,159.9Z" style="fill:#263238"></path><path d="M160.36,160.15a20.14,20.14,0,0,0,2.77,4.77,3.3,3.3,0,0,1-2.69.55Z" style="fill:#d4827d"></path><path d="M155,157.09a.3.3,0,0,1-.15-.07.34.34,0,0,1,0-.47,3.34,3.34,0,0,1,2.92-.76.33.33,0,0,1-.18.64h0a2.61,2.61,0,0,0-2.3.63A.33.33,0,0,1,155,157.09Z" style="fill:#263238"></path><path d="M165.54,156.77a.34.34,0,0,1-.31-.06,2.61,2.61,0,0,0-2.31-.54.34.34,0,0,1-.42-.21.33.33,0,0,1,.21-.42,3.31,3.31,0,0,1,2.95.65.32.32,0,0,1,.06.45h0A.36.36,0,0,1,165.54,156.77Z" style="fill:#263238"></path><path d="M161.26,141.79a.41.41,0,0,1-.19.79,7.33,7.33,0,0,0-4.19,1.23c4.91-.72,7.29,1.59,8.39,3.44a.42.42,0,0,1-.61.54,7.29,7.29,0,0,0-5.31-.81c3.06,1.83,2.45,4,2.45,4a9,9,0,0,0-4.82-2,5.66,5.66,0,0,1,2,3,.66.66,0,0,1-1.06.7c-4.36-3.82-7.62.08-7.62.08l-8.63-2.92C148.79,138,157.36,140,161.26,141.79Z" style="fill:#263238"></path><path d="M158.8,167.18a5.36,5.36,0,0,0,1-.09.17.17,0,0,0,.15-.2h0a.18.18,0,0,0-.2-.14,4.75,4.75,0,0,1-4.08-1.14.17.17,0,0,0-.25,0,.17.17,0,0,0,0,.24A4.9,4.9,0,0,0,158.8,167.18Z" style="fill:#263238"></path><path d="M149.49,165.55a3.05,3.05,0,0,0-2.49-3.24v-.5c8.84,3,12.35,2.3,13.65,1.62a1.17,1.17,0,0,1,1.35.19,2.74,2.74,0,0,0,3.81.15c.37,10.89-8.15,11.45-8.15,11.45-6.78-1.16-10.48-7.41-10.48-7.41l0-.8C148.17,167.35,149.41,167.37,149.49,165.55Z" style="fill:#167EA4"></path><path d="M149.49,165.55a3.05,3.05,0,0,0-2.49-3.24v-.5c8.84,3,12.35,2.3,13.65,1.62a1.17,1.17,0,0,1,1.35.19,2.74,2.74,0,0,0,3.81.15c.37,10.89-8.15,11.45-8.15,11.45-6.78-1.16-10.48-7.41-10.48-7.41l0-.8C148.17,167.35,149.41,167.37,149.49,165.55Z" style="fill:#fff;opacity:0.5"></path><path d="M162.05,163.68a2.75,2.75,0,0,0,3.75.09c.37,10.89-8.15,11.45-8.15,11.45C163.19,170.08,162.78,165.77,162.05,163.68Z" style="opacity:0.2"></path><path d="M142.23,164.67a6.61,6.61,0,0,0,4.15,2.84c2.26.45,3.23-1.6,2.46-3.65-.69-1.84-2.7-4.3-4.9-3.84A2.94,2.94,0,0,0,142.23,164.67Z" style="fill:#eec1bb"></path><path d="M119.68,255.27l-2.42,8.84,2,3.26a1.9,1.9,0,0,1,.15,1.66l-.6,1.59a1.91,1.91,0,0,1-2,1.21l-3.32-.44a1.9,1.9,0,0,1-1.58-2.41l1.47-5,.84-9.92Z" style="fill:#eec1bb"></path><polygon points="120.01 257.19 119.59 261.77 112.19 260.19 112.92 256.02 120.01 257.19" style="fill:#167EA4"></polygon><polygon points="120.01 257.19 119.59 261.77 112.19 260.19 112.92 256.02 120.01 257.19" style="fill:#fff;opacity:0.8"></polygon><path d="M171.34,189.36S160.68,180,149.68,181s-19.34,8.34-19.34,8.34,5.67,43,6.34,64.66c0,0,12.66-.33,40.33-1A288.84,288.84,0,0,0,171.34,189.36Z" style="fill:#263238"></path><path d="M158.72,183a12.83,12.83,0,0,1,0-3.5l0-.12a1.34,1.34,0,0,0-1.2-1.8,52,52,0,0,1-10.25-1.4,1.34,1.34,0,0,0-1.67,1.12c-.11.81-.23,1.71-.29,2.17a18.7,18.7,0,0,1-1.46,3.53S155.21,183.44,158.72,183Z" style="fill:#263238"></path><path d="M143.7,181.27s16.25,13.38,17.5,41.25a152.1,152.1,0,0,1-5.76,47.32,4.31,4.31,0,0,1-4.72,3.07l-24.27-3.26s8.58-21.19,7.37-39.75S130,189.36,130,189.36,132.82,185.4,143.7,181.27Z" style="fill:#167EA4"></path><path d="M151,250.52,138.72,248l-.27.82a2.19,2.19,0,0,0,1.64,2.8l8,1.64a2.18,2.18,0,0,0,2.52-1.48Z" style="opacity:0.2"></path><path d="M158.72,181.62s10.12,25.32,11.62,44.45c1.1,14,.59,32.72.24,41.83a4.31,4.31,0,0,0,5.12,4.4l4.52-.86s-1.75-15.62-2.25-37.25-5.5-44.17-5.5-44.17S170.22,186.79,158.72,181.62Z" style="fill:#167EA4"></path><path d="M179.34,249.77l-5.12.91s.37,3,6.12,1.65Z" style="fill:#167EA4"></path><path d="M179.34,249.77l-5.12.91s.37,3,6.12,1.65Z" style="opacity:0.2"></path><path d="M145.47,199.4l4.5-6.25h-8.25l-.67-10.81c.83-.35,1.7-.71,2.65-1.07,0,0,14.58,12,17.17,37Z" style="opacity:0.2"></path><path d="M162.22,183.27,168,190l-2.75,1.8,4.25,4.25s1,12.85-.26,21.43c-3.08-17.33-10.49-35.88-10.49-35.88C160,182.2,161.16,182.75,162.22,183.27Z" style="opacity:0.2"></path><path d="M131.61,204.4l3.13-5.51S138,210.21,133.55,226C133,218.55,132.27,210.82,131.61,204.4Z" style="opacity:0.1"></path><path d="M130,189.36S119.7,211.77,116,229a179.27,179.27,0,0,0-4.15,28.75l8.27,1.75a285.92,285.92,0,0,1,12.54-46.18C134.48,208.13,138,197.69,130,189.36Z" style="fill:#167EA4"></path><path d="M158.84,183.74s-1.75,2.41-10.29-.13a.22.22,0,0,0-.19.4C151.67,186.09,159.79,190.54,158.84,183.74Z" style="opacity:0.6000000000000001"></path></g><g id="freepik--Passport--inject-133"><path d="M394.85,248.76h-73.1L332.49,126h73.1a17.66,17.66,0,0,1,17.87,19.59l-7.31,83.61A21.81,21.81,0,0,1,394.85,248.76Z" style="fill:#167EA4"></path><path d="M394.85,248.76h-73.1L332.49,126h73.1a17.66,17.66,0,0,1,17.87,19.59l-7.31,83.61A21.81,21.81,0,0,1,394.85,248.76Z" style="opacity:0.4"></path><path d="M393,248.15H320.83L331.46,126.6h72.18a17.65,17.65,0,0,1,17.87,19.58l-7.21,82.38A21.8,21.8,0,0,1,393,248.15Z" style="fill:#167EA4"></path><path d="M393,248.15H320.83L331.46,126.6h72.18a17.65,17.65,0,0,1,17.87,19.58l-7.21,82.38A21.8,21.8,0,0,1,393,248.15Z" style="fill:#fff;opacity:0.8"></path><path d="M390,248.76h-73.1L327.63,126h73.1a17.66,17.66,0,0,1,17.87,19.59l-7.31,83.61A21.81,21.81,0,0,1,390,248.76Z" style="fill:#167EA4"></path><path d="M390,248.76h-73.1L327.63,126h73.1a17.66,17.66,0,0,1,17.87,19.59l-7.31,83.61A21.81,21.81,0,0,1,390,248.76Z" style="opacity:0.30000000000000004"></path><g style="opacity:0.9"><g style="opacity:0.9"><path d="M358.77,140l-.59,6.8h-1.26l.25-2.92h-3.52l-.25,2.92h-1.27l.6-6.8H354l-.24,2.8h3.51l.25-2.8Z" style="fill:#fff"></path><path d="M365.2,145.69l-.09,1.06H360l.59-6.8h5l-.09,1.06h-3.71l-.15,1.76h3.28l-.09,1h-3.28l-.17,1.88Z" style="fill:#fff"></path><path d="M371.07,145.18h-3.4l-.81,1.57h-1.3l3.65-6.8h1.25l2.47,6.8h-1.32Zm-.33-1-1-3-1.54,3Z" style="fill:#fff"></path><path d="M374.39,140h1.27l-.5,5.73h3.55l-.09,1.07H373.8Z" style="fill:#fff"></path><path d="M380.87,141h-2.25l.09-1.06h5.77l-.09,1.06h-2.26l-.5,5.74h-1.26Z" style="fill:#fff"></path><path d="M391.48,140l-.59,6.8h-1.27l.26-2.92h-3.52l-.26,2.92h-1.26l.6-6.8h1.26l-.25,2.8H390l.25-2.8Z" style="fill:#fff"></path></g><g style="opacity:0.9"><path d="M342.09,228.19a1.94,1.94,0,0,1,.93.83,2.29,2.29,0,0,1,.24,1.3,2.51,2.51,0,0,1-1.55,2.13,4,4,0,0,1-1.56.29h-1.54l-.17,2h-1.26l.59-6.8h2.8A3.53,3.53,0,0,1,342.09,228.19Zm-.62,3.13a1.35,1.35,0,0,0,.51-1,1.09,1.09,0,0,0-.34-1,1.76,1.76,0,0,0-1.22-.35h-1.48l-.23,2.7h1.47A2.13,2.13,0,0,0,341.47,231.32Z" style="fill:#fff"></path><path d="M348.35,233.13H345l-.81,1.57h-1.31l3.66-6.8h1.25l2.47,6.8h-1.32Zm-.33-1-1-3-1.53,3Z" style="fill:#fff"></path><path d="M351.68,234.57a2.65,2.65,0,0,1-1.11-.59l.52-1a3,3,0,0,0,1,.54,3.53,3.53,0,0,0,1.2.21,2.13,2.13,0,0,0,1.15-.25.79.79,0,0,0,.43-.64.59.59,0,0,0-.16-.48,1.39,1.39,0,0,0-.51-.29,7.88,7.88,0,0,0-.85-.25,8.1,8.1,0,0,1-1.23-.37,1.7,1.7,0,0,1-.77-.58,1.42,1.42,0,0,1-.25-1.06,2,2,0,0,1,.39-1,2.38,2.38,0,0,1,1-.73,4,4,0,0,1,1.53-.27,4.83,4.83,0,0,1,1.21.15,3.36,3.36,0,0,1,1,.45l-.49,1a4,4,0,0,0-.9-.4,3.31,3.31,0,0,0-.93-.13,2,2,0,0,0-1.13.25.88.88,0,0,0-.43.67.57.57,0,0,0,.17.48,1.39,1.39,0,0,0,.51.29c.2.07.49.15.85.24a8.51,8.51,0,0,1,1.21.37,1.86,1.86,0,0,1,.78.58,1.4,1.4,0,0,1,.25,1.05,2,2,0,0,1-.39,1,2.46,2.46,0,0,1-1,.73,4,4,0,0,1-1.54.27A4.91,4.91,0,0,1,351.68,234.57Z" style="fill:#fff"></path><path d="M357.79,234.57a2.65,2.65,0,0,1-1.11-.59l.52-1a3.16,3.16,0,0,0,1,.54,3.53,3.53,0,0,0,1.2.21,2.17,2.17,0,0,0,1.16-.25.83.83,0,0,0,.43-.64.6.6,0,0,0-.17-.48,1.43,1.43,0,0,0-.5-.29,8.17,8.17,0,0,0-.86-.25,7.93,7.93,0,0,1-1.22-.37,1.78,1.78,0,0,1-.78-.58,1.42,1.42,0,0,1-.25-1.06,2,2,0,0,1,.39-1,2.44,2.44,0,0,1,1-.73,4,4,0,0,1,1.54-.27,4.89,4.89,0,0,1,1.21.15,3.41,3.41,0,0,1,1,.45l-.49,1a4.18,4.18,0,0,0-.89-.4,3.42,3.42,0,0,0-.93-.13,2.1,2.1,0,0,0-1.14.25.84.84,0,0,0-.42.67.57.57,0,0,0,.16.48,1.39,1.39,0,0,0,.51.29c.21.07.49.15.85.24a8.12,8.12,0,0,1,1.21.37,1.83,1.83,0,0,1,.79.58,1.44,1.44,0,0,1,.25,1.05,2,2,0,0,1-.4,1,2.46,2.46,0,0,1-1,.73,4,4,0,0,1-1.54.27A5,5,0,0,1,357.79,234.57Z" style="fill:#fff"></path><path d="M368.21,228.19a2,2,0,0,1,.94.83,2.21,2.21,0,0,1,.23,1.3,2.42,2.42,0,0,1-.46,1.28,2.49,2.49,0,0,1-1.08.85,4,4,0,0,1-1.57.29h-1.53l-.17,2H363.3l.6-6.8h2.8A3.48,3.48,0,0,1,368.21,228.19Zm-.61,3.13a1.38,1.38,0,0,0,.51-1,1.12,1.12,0,0,0-.34-1,1.76,1.76,0,0,0-1.22-.35h-1.48l-.24,2.7h1.48A2.13,2.13,0,0,0,367.6,231.32Z" style="fill:#fff"></path><path d="M371.69,234.35a3,3,0,0,1-1.2-1.26,3.23,3.23,0,0,1-.32-1.79,3.83,3.83,0,0,1,2.06-3.05,4.1,4.1,0,0,1,1.91-.45,3.66,3.66,0,0,1,1.84.45,3,3,0,0,1,1.2,1.25,3.25,3.25,0,0,1,.32,1.8,3.74,3.74,0,0,1-.63,1.8,4,4,0,0,1-1.42,1.25,4.18,4.18,0,0,1-1.92.45A3.69,3.69,0,0,1,371.69,234.35Zm3.19-1a2.53,2.53,0,0,0,.93-.85,2.66,2.66,0,0,0,.42-1.23,2.26,2.26,0,0,0-.21-1.23,1.91,1.91,0,0,0-.78-.86,2.31,2.31,0,0,0-1.19-.3,2.69,2.69,0,0,0-1.26.3,2.56,2.56,0,0,0-.93.86,2.68,2.68,0,0,0-.41,1.23,2.29,2.29,0,0,0,.2,1.23,1.89,1.89,0,0,0,.78.85,2.23,2.23,0,0,0,1.2.31A2.55,2.55,0,0,0,374.88,233.38Z" style="fill:#fff"></path><path d="M383,234.7l-1.22-2H380l-.17,2h-1.26l.59-6.8h2.8a3.48,3.48,0,0,1,1.51.29,2,2,0,0,1,.94.83,2.21,2.21,0,0,1,.23,1.3,2.39,2.39,0,0,1-.49,1.32,2.47,2.47,0,0,1-1.14.82l1.37,2.24Zm0-5.38a1.76,1.76,0,0,0-1.22-.35h-1.48l-.24,2.71h1.48a2.06,2.06,0,0,0,1.29-.36,1.36,1.36,0,0,0,.51-1A1.09,1.09,0,0,0,383,229.32Z" style="fill:#fff"></path><path d="M387.44,229h-2.26l.09-1.07h5.78L391,229H388.7l-.5,5.73h-1.27Z" style="fill:#fff"></path></g></g><path d="M370,163.3a23.34,23.34,0,0,0-23,21.24c-1,11.83,7.45,21.09,19.32,21.09a23.58,23.58,0,0,0,23.08-21.09A19.17,19.17,0,0,0,370,163.3Zm-19,14.48a19,19,0,0,1,4.9-6.69,19.58,19.58,0,0,1,6.54-4.1l1-.41-.7.86a24.28,24.28,0,0,0-4.15,8.39l-.06.18-.18,0a35.77,35.77,0,0,0-7,2.1l-.68.3Zm-1.42,12.53-.08-.3a17,17,0,0,1-.38-5.47c.27-3.16.8-5,8.43-6.24l.4-.06-.08.39a51.79,51.79,0,0,0-.86,5.7,34.14,34.14,0,0,0-.19,3.86v.29l-.3,0a25.09,25.09,0,0,0-6.64,1.68Zm10.15,11.85a16.18,16.18,0,0,1-9.44-9.64l-.08-.22.2-.14c.86-.61,3-1.24,6.23-1.83l.3-.05,0,.3c.32,4.78,1.38,8.52,3.15,11.12l.54.79Zm5.74,1.22h-.29a3.08,3.08,0,0,1-1.58-.8l-.34-.24c-2.29-2.26-4-6.83-4.46-11.94l0-.32.33,0c2.47-.22,4.85-.36,7.27-.43h.3Zm1.37-15.65h-.29c-2.61.06-5.07.2-7.52.42l-.3,0v-.3c0-1.21.12-2.3.23-3.55a38.46,38.46,0,0,1,1-6.29l.06-.2.21,0a60.46,60.46,0,0,1,7.24-.64h.3ZM368,175.27h-.29c-2.18.07-4.4.21-6.6.42l-.43,0,.15-.41c1-2.68,3.68-9.77,7.72-9.77h.3Zm9-8.28a15.3,15.3,0,0,1,5.75,4.1,16.82,16.82,0,0,1,3.92,7l.24.76-.69-.39a26.2,26.2,0,0,0-6.8-2.31l-.18-.05,0-.18a20.31,20.31,0,0,0-2.61-8.45l-.54-.85ZM371,165.56h.3c1.83,0,3.45,1.74,4.45,4.78a16.86,16.86,0,0,1,1.49,5l.06.4-.41,0c-2.07-.21-4.25-.35-6.45-.42h-.29Zm-1,11.59h.3a48.06,48.06,0,0,1,7.13.72l.2,0v.21a42.19,42.19,0,0,1-.11,6.21c-.05.64-.12,1.22-.19,1.81s-.14,1.16-.2,1.8l0,.33-.32,0c-2.12-.25-4.55-.41-7.43-.49H369Zm-1.75,26.21-.05,0h-.5l1.21-13.77h.3c2.45.08,4.84.22,7.13.43l.31,0-.08.31C374.76,197.08,371.58,202.05,368.19,203.36Zm16.46-10.77a18.63,18.63,0,0,1-4.2,5.26,21.7,21.7,0,0,1-6.86,4.21l-.36-.42a27.71,27.71,0,0,0,5.16-11l.08-.32.31.08c1.31.37,2.32.62,3.09.82,1.67.42,2.29.59,2.74,1l.15.14Zm1.18-2.2-.3-.13a31,31,0,0,0-6.44-1.75l-.26,0,.05-.27a36.57,36.57,0,0,0,.55-3.86,35.47,35.47,0,0,0,.07-5.62l0-.41.4.07c5.18,1,7,2.81,7.38,3.36l.05.06v.07a15.36,15.36,0,0,1-.09,2.68,21.52,21.52,0,0,1-1.27,5.53Z" style="fill:#fff;opacity:0.9"></path></g></svg>