<?xml version="1.0"?>
<svg xmlns="http://www.w3.org/2000/svg" xmlns:xlink="http://www.w3.org/1999/xlink" xmlns:svgjs="http://svgjs.com/svgjs" version="1.1" width="512" height="512" x="0" y="0" viewBox="0 0 512 512" style="enable-background:new 0 0 512 512" xml:space="preserve"><g><g xmlns="http://www.w3.org/2000/svg"><path d="m512 512-.013-452.115h-59.897l-.001-59.885h-452.089v452.102h59.898v59.898zm-29.961-422.166.011 392.216h-392.202v-29.949h264.121c26.212 0 50.855-10.208 69.39-28.743s28.742-43.179 28.741-69.391l-.007-264.134h29.946zm-115.35 331.127c3.188-6.861 4.981-14.497 4.981-22.548v-26.185h27.685c7.522 0 14.777-1.571 21.414-4.533-2.639 12.977-9.009 24.907-18.588 34.486-9.826 9.827-22.126 16.271-35.492 18.78zm55.452-391.025.002 59.898h-392.194v-59.898zm-392.192 89.848h392.194l.005 199.646c-.215 6.227-2.613 11.949-6.832 16.229-4.21 4.27-9.878 6.621-15.962 6.621h-57.634v56.134c0 13.09-10.642 23.739-23.723 23.739h-288.048z" fill="#ffffff" data-original="#000000" style=""/><path d="m103.812 169.052h29.951v29.949h-29.951z" fill="#ffffff" data-original="#000000" style=""/><path d="m166.01 169.052h172.912v29.949h-172.912z" fill="#ffffff" data-original="#000000" style=""/><path d="m103.812 228.95h29.951v29.949h-29.951z" fill="#ffffff" data-original="#000000" style=""/><path d="m166.01 228.95h172.912v29.949h-172.912z" fill="#ffffff" data-original="#000000" style=""/><path d="m103.812 288.849h29.951v29.949h-29.951z" fill="#ffffff" data-original="#000000" style=""/><path d="m166.01 288.849h172.912v29.949h-172.912z" fill="#ffffff" data-original="#000000" style=""/></g></g></svg>
